<svg width="280" height="1024" viewBox="0 0 280 1024" fill="none" xmlns="http://www.w3.org/2000/svg">
<path d="M280 0H32C14.3269 0 0 14.3269 0 32V992C0 1009.67 14.3269 1024 32 1024H280V0Z" fill="#073E32"/>
<path d="M158.384 226.544L157.16 223.568C158.008 223.28 158.784 222.944 159.488 222.56C160.208 222.176 160.832 221.752 161.36 221.288C161.888 220.824 162.296 220.32 162.584 219.776C162.872 219.216 163.016 218.616 163.016 217.976C163.016 217.304 162.864 216.568 162.56 215.768C162.256 214.968 161.888 214.152 161.456 213.32L164.6 211.808C164.888 212.304 165.136 212.84 165.344 213.416C165.568 213.976 165.752 214.48 165.896 214.928C166.04 215.376 166.136 215.68 166.184 215.84C166.408 216.608 166.712 217.12 167.096 217.376C167.496 217.632 168.136 217.76 169.016 217.76C169.624 217.76 170.056 217.92 170.312 218.24C170.584 218.544 170.72 218.928 170.72 219.392C170.72 219.888 170.552 220.304 170.216 220.64C169.88 220.96 169.4 221.12 168.776 221.12C168.12 221.12 167.544 221.024 167.048 220.832C166.552 220.64 166.152 220.36 165.848 219.992C165.56 219.624 165.376 219.192 165.296 218.696L166.184 219.2C166.088 220.048 165.808 220.848 165.344 221.6C164.896 222.368 164.312 223.072 163.592 223.712C162.872 224.352 162.064 224.912 161.168 225.392C160.272 225.872 159.344 226.256 158.384 226.544ZM168.805 221.12L169.045 217.76C170.005 217.76 170.741 217.712 171.253 217.616C171.765 217.52 172.117 217.344 172.309 217.088C172.517 216.816 172.621 216.432 172.621 215.936C172.621 215.488 172.557 214.952 172.429 214.328C172.317 213.704 172.165 213.056 171.973 212.384C171.797 211.712 171.605 211.096 171.397 210.536L174.709 209.624C174.917 210.168 175.117 210.8 175.309 211.52C175.501 212.24 175.661 212.984 175.789 213.752C175.917 214.504 175.981 215.232 175.981 215.936C175.981 217.024 175.805 217.912 175.453 218.6C175.101 219.272 174.605 219.792 173.965 220.16C173.341 220.528 172.589 220.784 171.709 220.928C170.829 221.056 169.861 221.12 168.805 221.12ZM174.733 226.688C174.269 226.688 173.869 226.52 173.533 226.184C173.213 225.864 173.053 225.48 173.053 225.032C173.053 224.568 173.213 224.168 173.533 223.832C173.869 223.496 174.269 223.328 174.733 223.328C175.181 223.328 175.565 223.496 175.885 223.832C176.205 224.168 176.365 224.568 176.365 225.032C176.365 225.48 176.205 225.864 175.885 226.184C175.565 226.52 175.181 226.688 174.733 226.688ZM170.581 226.688C170.117 226.688 169.717 226.52 169.381 226.184C169.061 225.864 168.901 225.48 168.901 225.032C168.901 224.568 169.061 224.168 169.381 223.832C169.717 223.496 170.117 223.328 170.581 223.328C171.029 223.328 171.413 223.496 171.733 223.832C172.053 224.168 172.213 224.568 172.213 225.032C172.213 225.48 172.053 225.864 171.733 226.184C171.413 226.52 171.029 226.688 170.581 226.688ZM177.814 226.52L176.59 223.448C177.966 222.968 179.078 222.44 179.926 221.864C180.79 221.288 181.422 220.672 181.822 220.016C182.238 219.36 182.446 218.68 182.446 217.976C182.446 217.528 182.382 217.064 182.254 216.584C182.126 216.088 181.942 215.568 181.702 215.024C181.478 214.48 181.206 213.912 180.886 213.32L184.03 211.808C184.59 212.88 185.022 213.904 185.326 214.88C185.646 215.856 185.806 216.768 185.806 217.616C185.806 218.4 185.702 219.152 185.494 219.872C185.302 220.592 184.998 221.264 184.582 221.888C184.182 222.528 183.662 223.128 183.022 223.688C182.382 224.248 181.63 224.76 180.766 225.224C179.902 225.704 178.918 226.136 177.814 226.52ZM194.858 221.12C193.37 221.12 192.218 220.968 191.402 220.664C190.602 220.36 190.042 219.888 189.722 219.248C189.402 218.592 189.218 217.768 189.17 216.776L188.666 203.432H192.026L192.53 215.168C192.562 215.904 192.642 216.456 192.77 216.824C192.898 217.192 193.138 217.44 193.49 217.568C193.858 217.696 194.394 217.76 195.098 217.76C195.706 217.76 196.138 217.92 196.394 218.24C196.666 218.544 196.802 218.928 196.802 219.392C196.802 219.888 196.634 220.304 196.298 220.64C195.962 220.96 195.482 221.12 194.858 221.12ZM194.891 221.12L195.131 217.784C195.755 217.8 196.331 217.792 196.859 217.76C197.387 217.728 197.859 217.68 198.275 217.616C198.707 217.552 199.083 217.48 199.403 217.4C199.739 217.32 200.019 217.248 200.243 217.184C200.787 217.008 201.251 216.8 201.635 216.56C202.019 216.304 202.315 216.016 202.523 215.696C202.731 215.376 202.835 215.032 202.835 214.664C202.835 214.376 202.771 214.088 202.643 213.8C202.531 213.496 202.363 213.248 202.139 213.056C201.915 212.864 201.651 212.768 201.347 212.768C201.059 212.768 200.795 212.856 200.555 213.032C200.315 213.208 200.123 213.448 199.979 213.752C199.835 214.04 199.763 214.376 199.763 214.76C199.763 215.096 199.843 215.416 200.003 215.72C200.163 216.008 200.387 216.288 200.675 216.56C200.963 216.832 201.307 217.088 201.707 217.328L198.515 218.552C198.163 218.216 197.827 217.856 197.507 217.472C197.203 217.088 196.947 216.656 196.739 216.176C196.547 215.68 196.451 215.128 196.451 214.52C196.451 213.784 196.595 213.112 196.883 212.504C197.171 211.896 197.555 211.376 198.035 210.944C198.515 210.496 199.051 210.152 199.643 209.912C200.235 209.672 200.827 209.552 201.419 209.552C202.379 209.552 203.211 209.776 203.915 210.224C204.619 210.672 205.163 211.256 205.547 211.976C205.947 212.696 206.147 213.48 206.147 214.328C206.147 215.112 206.003 215.816 205.715 216.44C205.427 217.048 205.035 217.592 204.539 218.072C204.059 218.536 203.523 218.944 202.931 219.296C202.355 219.648 201.771 219.944 201.179 220.184C200.891 220.312 200.531 220.432 200.099 220.544C199.667 220.656 199.179 220.76 198.635 220.856C198.091 220.936 197.507 221 196.883 221.048C196.259 221.096 195.595 221.12 194.891 221.12ZM207.563 221.12C206.635 221.12 205.723 221.072 204.827 220.976C203.931 220.88 203.099 220.736 202.331 220.544C201.579 220.352 200.923 220.12 200.363 219.848L202.019 217.256C202.499 217.384 203.059 217.488 203.699 217.568C204.355 217.632 205.035 217.68 205.739 217.712C206.459 217.744 207.147 217.76 207.803 217.76C208.411 217.76 208.843 217.92 209.099 218.24C209.371 218.544 209.507 218.928 209.507 219.392C209.507 219.888 209.339 220.304 209.003 220.64C208.667 220.96 208.187 221.12 207.563 221.12ZM203.531 207.368C203.067 207.368 202.667 207.208 202.331 206.888C202.011 206.552 201.851 206.16 201.851 205.712C201.851 205.248 202.011 204.848 202.331 204.512C202.667 204.176 203.067 204.008 203.531 204.008C203.979 204.008 204.363 204.176 204.683 204.512C205.003 204.848 205.163 205.248 205.163 205.712C205.163 206.16 205.003 206.552 204.683 206.888C204.363 207.208 203.979 207.368 203.531 207.368ZM199.379 207.344C198.915 207.344 198.515 207.184 198.179 206.864C197.859 206.528 197.699 206.136 197.699 205.688C197.699 205.224 197.859 204.824 198.179 204.488C198.515 204.152 198.915 203.984 199.379 203.984C199.827 203.984 200.211 204.152 200.531 204.488C200.851 204.824 201.011 205.224 201.011 205.688C201.011 206.136 200.851 206.528 200.531 206.864C200.211 207.184 199.827 207.344 199.379 207.344ZM207.594 221.12L207.834 217.76C208.794 217.76 209.53 217.712 210.042 217.616C210.554 217.52 210.906 217.344 211.098 217.088C211.306 216.816 211.41 216.432 211.41 215.936C211.41 215.488 211.346 214.952 211.218 214.328C211.106 213.704 210.954 213.056 210.762 212.384C210.586 211.712 210.394 211.096 210.186 210.536L213.498 209.624C213.706 210.168 213.906 210.8 214.098 211.52C214.29 212.24 214.45 212.984 214.578 213.752C214.706 214.504 214.77 215.232 214.77 215.936C214.77 217.024 214.594 217.912 214.242 218.6C213.89 219.272 213.394 219.792 212.754 220.16C212.13 220.528 211.378 220.784 210.498 220.928C209.618 221.056 208.65 221.12 207.594 221.12ZM214.098 207.68C213.634 207.68 213.234 207.52 212.898 207.2C212.578 206.864 212.418 206.472 212.418 206.024C212.418 205.56 212.578 205.16 212.898 204.824C213.234 204.488 213.634 204.32 214.098 204.32C214.546 204.32 214.93 204.488 215.25 204.824C215.57 205.16 215.73 205.56 215.73 206.024C215.73 206.472 215.57 206.864 215.25 207.2C214.93 207.52 214.546 207.68 214.098 207.68ZM209.946 207.656C209.482 207.656 209.082 207.496 208.746 207.176C208.426 206.84 208.266 206.448 208.266 206C208.266 205.536 208.426 205.136 208.746 204.8C209.082 204.464 209.482 204.296 209.946 204.296C210.394 204.296 210.778 204.464 211.098 204.8C211.418 205.136 211.578 205.536 211.578 206C211.578 206.448 211.418 206.84 211.098 207.176C210.778 207.496 210.394 207.656 209.946 207.656Z" fill="white"/>
<path opacity="0.5" d="M240 970.667C242.829 970.667 245.542 969.543 247.543 967.543C249.543 965.542 250.667 962.829 250.667 960C250.667 957.171 249.543 954.458 247.543 952.458C245.542 950.457 242.829 949.333 240 949.333" stroke="white" stroke-linecap="round"/>
<path d="M242.667 960H229.333M229.333 960L233.333 956M229.333 960L233.333 964" stroke="white" stroke-linecap="round" stroke-linejoin="round"/>
<path d="M89.576 970.928C89.08 970.928 88.656 970.76 88.304 970.424C87.968 970.088 87.8 969.672 87.8 969.176C87.8 968.68 87.968 968.256 88.304 967.904C88.656 967.552 89.08 967.376 89.576 967.376C90.056 967.376 90.464 967.552 90.8 967.904C91.152 968.256 91.328 968.68 91.328 969.176C91.328 969.672 91.152 970.088 90.8 970.424C90.464 970.76 90.056 970.928 89.576 970.928ZM89.048 977.456C87.832 977.456 86.696 977.304 85.64 977C84.584 976.696 83.664 976.24 82.88 975.632C82.096 975.024 81.48 974.272 81.032 973.376C80.6 972.48 80.384 971.448 80.384 970.28C80.384 969.192 80.552 968.184 80.888 967.256C81.24 966.328 81.72 965.488 82.328 964.736C82.952 963.984 83.688 963.312 84.536 962.72C85.384 962.128 86.312 961.624 87.32 961.208C88.344 960.792 89.416 960.464 90.536 960.224L90.584 960.656C90.2 960.544 89.776 960.416 89.312 960.272C88.848 960.128 88.344 959.992 87.8 959.864C87.272 959.736 86.704 959.632 86.096 959.552C85.504 959.456 84.88 959.408 84.224 959.408C83.648 959.408 83.104 959.448 82.592 959.528C82.096 959.592 81.656 959.672 81.272 959.768L80.768 956.504C81.232 956.36 81.728 956.24 82.256 956.144C82.8 956.048 83.36 956 83.936 956C84.8 956 85.6 956.08 86.336 956.24C87.072 956.384 87.76 956.568 88.4 956.792C89.056 957.016 89.68 957.248 90.272 957.488C90.88 957.712 91.472 957.904 92.048 958.064C92.624 958.208 93.216 958.28 93.824 958.28H94.784L95.096 961.88C94.488 961.88 93.784 961.96 92.984 962.12C92.2 962.28 91.384 962.512 90.536 962.816C89.688 963.12 88.856 963.496 88.04 963.944C87.24 964.392 86.512 964.912 85.856 965.504C85.216 966.096 84.704 966.752 84.32 967.472C83.936 968.192 83.744 968.976 83.744 969.824C83.744 970.592 83.888 971.248 84.176 971.792C84.464 972.336 84.864 972.776 85.376 973.112C85.888 973.448 86.48 973.696 87.152 973.856C87.84 974.016 88.576 974.096 89.36 974.096C90.24 974.096 91.128 974 92.024 973.808C92.936 973.616 93.848 973.344 94.76 972.992L95.744 975.92C94.576 976.464 93.416 976.856 92.264 977.096C91.112 977.336 90.04 977.456 89.048 977.456ZM97.8446 973.52L97.1486 970.16C98.2846 970.016 99.2766 969.84 100.125 969.632C100.973 969.44 101.685 969.168 102.261 968.816C102.837 968.464 103.269 967.984 103.557 967.376C103.845 966.752 103.989 965.952 103.989 964.976C103.989 964.624 103.957 964.272 103.893 963.92C103.829 963.552 103.733 963.216 103.605 962.912C103.477 962.608 103.309 962.36 103.101 962.168C102.909 961.976 102.677 961.88 102.405 961.88C102.117 961.88 101.861 961.984 101.637 962.192C101.413 962.384 101.237 962.632 101.109 962.936C100.981 963.224 100.917 963.52 100.917 963.824C100.917 964.048 100.973 964.24 101.085 964.4C101.197 964.544 101.365 964.656 101.589 964.736C101.813 964.8 102.093 964.832 102.429 964.832C102.813 964.832 103.205 964.792 103.605 964.712C104.021 964.616 104.397 964.488 104.733 964.328L104.829 966.944C104.445 967.248 104.005 967.52 103.509 967.76C103.013 967.984 102.413 968.096 101.709 968.096C101.133 968.096 100.597 968.032 100.101 967.904C99.6046 967.76 99.1646 967.544 98.7806 967.256C98.4126 966.968 98.1246 966.6 97.9166 966.152C97.7086 965.688 97.6046 965.136 97.6046 964.496C97.6046 963.712 97.7326 962.952 97.9886 962.216C98.2446 961.48 98.5966 960.824 99.0446 960.248C99.5086 959.656 100.037 959.192 100.629 958.856C101.237 958.504 101.877 958.328 102.549 958.328C103.349 958.328 104.045 958.528 104.637 958.928C105.245 959.328 105.749 959.856 106.149 960.512C106.549 961.152 106.853 961.848 107.061 962.6C107.269 963.352 107.373 964.072 107.373 964.76C107.373 966.568 106.989 968.104 106.221 969.368C105.453 970.632 104.357 971.608 102.933 972.296C101.509 973 99.8126 973.408 97.8446 973.52ZM108.814 973.544L107.59 970.568C108.438 970.28 109.214 969.944 109.918 969.56C110.638 969.176 111.262 968.752 111.79 968.288C112.318 967.824 112.726 967.32 113.014 966.776C113.302 966.216 113.446 965.616 113.446 964.976C113.446 964.304 113.294 963.568 112.99 962.768C112.686 961.968 112.318 961.152 111.886 960.32L115.03 958.808C115.318 959.304 115.566 959.84 115.774 960.416C115.998 960.976 116.182 961.48 116.326 961.928C116.47 962.376 116.566 962.68 116.614 962.84C116.838 963.608 117.142 964.12 117.526 964.376C117.926 964.632 118.566 964.76 119.446 964.76C120.054 964.76 120.486 964.92 120.742 965.24C121.014 965.544 121.15 965.928 121.15 966.392C121.15 966.888 120.982 967.304 120.646 967.64C120.31 967.96 119.83 968.12 119.206 968.12C118.55 968.12 117.974 968.024 117.478 967.832C116.982 967.64 116.582 967.36 116.278 966.992C115.99 966.624 115.806 966.192 115.726 965.696L116.614 966.2C116.518 967.048 116.238 967.848 115.774 968.6C115.326 969.368 114.742 970.072 114.022 970.712C113.302 971.352 112.494 971.912 111.598 972.392C110.702 972.872 109.774 973.256 108.814 973.544ZM119.234 968.12L119.474 964.76C120.338 964.76 121.194 964.712 122.042 964.616C122.89 964.52 123.714 964.376 124.514 964.184C125.314 963.992 126.074 963.744 126.794 963.44C127.53 963.136 128.218 962.768 128.858 962.336C128.378 962.048 127.858 961.8 127.298 961.592C126.738 961.384 126.138 961.232 125.498 961.136C124.874 961.024 124.21 960.968 123.506 960.968C123.25 960.968 122.978 960.976 122.69 960.992C122.418 961.008 122.138 961.04 121.85 961.088C121.562 961.12 121.274 961.168 120.986 961.232L120.506 957.944C120.97 957.816 121.458 957.728 121.97 957.68C122.498 957.616 122.962 957.584 123.362 957.584C124.226 957.584 125.018 957.68 125.738 957.872C126.474 958.064 127.146 958.304 127.754 958.592C128.378 958.88 128.954 959.168 129.482 959.456C130.026 959.744 130.538 959.984 131.018 960.176C131.514 960.368 131.994 960.464 132.458 960.464H133.346L133.73 963.656C133.042 963.688 132.394 963.824 131.786 964.064C131.194 964.288 130.602 964.576 130.01 964.928C129.434 965.264 128.81 965.616 128.138 965.984C127.482 966.352 126.738 966.696 125.906 967.016C125.074 967.336 124.114 967.6 123.026 967.808C121.938 968.016 120.674 968.12 119.234 968.12ZM123.386 955.352C122.89 955.352 122.466 955.184 122.114 954.848C121.778 954.512 121.61 954.096 121.61 953.6C121.61 953.104 121.778 952.68 122.114 952.328C122.466 951.976 122.89 951.8 123.386 951.8C123.866 951.8 124.274 951.976 124.61 952.328C124.962 952.68 125.138 953.104 125.138 953.6C125.138 954.096 124.962 954.512 124.61 954.848C124.274 955.184 123.866 955.352 123.386 955.352ZM140.507 967.328C140.507 966.96 140.539 966.528 140.603 966.032C140.667 965.536 140.787 964.976 140.963 964.352C141.139 963.712 141.403 963 141.755 962.216L144.707 963.248C144.531 963.744 144.379 964.2 144.251 964.616C144.123 965.016 144.027 965.392 143.963 965.744C143.899 966.08 143.867 966.416 143.867 966.752C143.867 967.472 144.043 968.096 144.395 968.624C144.763 969.168 145.259 969.584 145.883 969.872C146.523 970.176 147.259 970.328 148.091 970.328C149.451 970.328 150.491 970.104 151.211 969.656C151.947 969.224 152.443 968.536 152.699 967.592C152.971 966.632 153.075 965.392 153.011 963.872L152.531 950.432H155.915L156.275 961.784C156.307 962.584 156.419 963.2 156.611 963.632C156.803 964.064 157.099 964.36 157.499 964.52C157.915 964.68 158.451 964.76 159.107 964.76C159.715 964.76 160.147 964.92 160.403 965.24C160.659 965.544 160.787 965.928 160.787 966.392C160.787 966.888 160.619 967.304 160.283 967.64C159.947 967.96 159.475 968.12 158.867 968.12C158.515 968.12 158.139 968.072 157.739 967.976C157.339 967.88 156.955 967.728 156.587 967.52C156.219 967.312 155.899 967.04 155.627 966.704C155.355 966.352 155.171 965.92 155.075 965.408L156.371 964.76C156.371 966.376 156.179 967.744 155.795 968.864C155.427 969.984 154.883 970.888 154.163 971.576C153.459 972.264 152.587 972.76 151.547 973.064C150.523 973.384 149.339 973.544 147.995 973.544C146.971 973.544 146.003 973.416 145.091 973.16C144.195 972.904 143.403 972.52 142.715 972.008C142.027 971.496 141.483 970.848 141.083 970.064C140.699 969.296 140.507 968.384 140.507 967.328ZM158.867 968.12L159.107 964.76C159.683 964.76 160.179 964.704 160.595 964.592C161.011 964.48 161.363 964.256 161.651 963.92C161.939 963.568 162.179 963.056 162.371 962.384C162.579 961.712 162.763 960.816 162.923 959.696L166.067 960.224C166.035 960.464 165.987 960.744 165.923 961.064C165.875 961.384 165.827 961.712 165.779 962.048C165.747 962.368 165.731 962.672 165.731 962.96C165.731 963.248 165.787 963.504 165.899 963.728C166.011 963.952 166.187 964.144 166.427 964.304C166.683 964.448 167.011 964.56 167.411 964.64C167.827 964.72 168.331 964.76 168.923 964.76C169.531 964.76 169.963 964.92 170.219 965.24C170.475 965.544 170.603 965.928 170.603 966.392C170.603 966.888 170.435 967.304 170.099 967.64C169.779 967.96 169.307 968.12 168.683 968.12C167.963 968.12 167.307 968.064 166.715 967.952C166.139 967.84 165.635 967.656 165.203 967.4C164.787 967.128 164.443 966.776 164.171 966.344C163.915 965.896 163.755 965.352 163.691 964.712H164.843C164.555 965.48 164.187 966.096 163.739 966.56C163.307 967.008 162.819 967.344 162.275 967.568C161.731 967.792 161.163 967.936 160.571 968C159.995 968.08 159.427 968.12 158.867 968.12ZM165.563 973.688C165.099 973.688 164.699 973.52 164.363 973.184C164.043 972.864 163.883 972.48 163.883 972.032C163.883 971.568 164.043 971.168 164.363 970.832C164.699 970.496 165.099 970.328 165.563 970.328C166.011 970.328 166.395 970.496 166.715 970.832C167.035 971.168 167.195 971.568 167.195 972.032C167.195 972.48 167.035 972.864 166.715 973.184C166.395 973.52 166.011 973.688 165.563 973.688ZM161.411 973.688C160.947 973.688 160.547 973.52 160.211 973.184C159.891 972.864 159.731 972.48 159.731 972.032C159.731 971.568 159.891 971.168 160.211 970.832C160.547 970.496 160.947 970.328 161.411 970.328C161.859 970.328 162.243 970.496 162.563 970.832C162.883 971.168 163.043 971.568 163.043 972.032C163.043 972.48 162.883 972.864 162.563 973.184C162.243 973.52 161.859 973.688 161.411 973.688ZM184.384 968.12C183.648 968.12 182.96 968.064 182.32 967.952C181.696 967.84 181.12 967.648 180.592 967.376C180.064 967.088 179.592 966.696 179.176 966.2C178.776 965.704 178.44 965.08 178.168 964.328L180.064 962.816C180.352 963.328 180.704 963.728 181.12 964.016C181.536 964.288 182.032 964.48 182.608 964.592C183.184 964.704 183.856 964.76 184.624 964.76C185.232 964.76 185.664 964.92 185.92 965.24C186.176 965.544 186.304 965.928 186.304 966.392C186.304 966.888 186.136 967.304 185.8 967.64C185.48 967.96 185.008 968.12 184.384 968.12ZM168.688 968.12L168.928 964.76C169.792 964.76 170.648 964.712 171.496 964.616C172.344 964.52 173.168 964.376 173.968 964.184C174.768 963.992 175.528 963.744 176.248 963.44C176.984 963.136 177.672 962.768 178.312 962.336C177.832 962.048 177.312 961.8 176.752 961.592C176.192 961.384 175.592 961.232 174.952 961.136C174.328 961.024 173.664 960.968 172.96 960.968C172.704 960.968 172.432 960.976 172.144 960.992C171.872 961.008 171.592 961.04 171.304 961.088C171.016 961.12 170.728 961.168 170.44 961.232L169.96 957.944C170.424 957.816 170.912 957.728 171.424 957.68C171.952 957.616 172.416 957.584 172.816 957.584C173.68 957.584 174.472 957.68 175.192 957.872C175.928 958.064 176.6 958.304 177.208 958.592C177.832 958.88 178.408 959.168 178.936 959.456C179.48 959.744 179.992 959.984 180.472 960.176C180.968 960.368 181.448 960.464 181.911 960.464H182.799L183.184 963.656C182.496 963.688 181.848 963.824 181.24 964.064C180.648 964.288 180.056 964.576 179.464 964.928C178.888 965.264 178.264 965.616 177.592 965.984C176.936 966.352 176.192 966.696 175.36 967.016C174.528 967.336 173.568 967.6 172.48 967.808C171.392 968.016 170.128 968.12 168.688 968.12ZM175.48 973.52C175.016 973.52 174.616 973.36 174.28 973.04C173.96 972.72 173.8 972.328 173.8 971.864C173.8 971.4 173.96 970.992 174.28 970.64C174.616 970.304 175.016 970.136 175.48 970.136C175.944 970.136 176.336 970.304 176.656 970.64C176.992 970.992 177.16 971.4 177.16 971.864C177.16 972.328 176.992 972.72 176.656 973.04C176.336 973.36 175.944 973.52 175.48 973.52ZM184.391 968.12L184.631 964.76C185.159 964.76 185.591 964.72 185.927 964.64C186.263 964.544 186.535 964.344 186.743 964.04C186.967 963.72 187.159 963.248 187.319 962.624C187.495 961.984 187.687 961.12 187.895 960.032L191.015 960.608C190.951 960.96 190.863 961.4 190.751 961.928C190.655 962.456 190.607 962.912 190.607 963.296C190.607 963.6 190.663 963.864 190.775 964.088C190.903 964.296 191.111 964.464 191.399 964.592C191.703 964.704 192.119 964.76 192.647 964.76C193.063 964.76 193.415 964.72 193.703 964.64C194.007 964.544 194.263 964.344 194.471 964.04C194.695 963.72 194.887 963.232 195.047 962.576C195.223 961.904 195.391 961 195.551 959.864L198.719 960.368C198.655 960.736 198.591 961.128 198.527 961.544C198.463 961.96 198.407 962.344 198.359 962.696C198.311 963.048 198.287 963.336 198.287 963.56C198.287 963.768 198.343 963.968 198.455 964.16C198.583 964.336 198.807 964.48 199.127 964.592C199.463 964.704 199.927 964.76 200.519 964.76C201.239 964.76 201.767 964.608 202.103 964.304C202.455 963.984 202.631 963.504 202.631 962.864C202.631 962.496 202.623 962.104 202.607 961.688C202.591 961.256 202.559 960.776 202.511 960.248C202.479 959.704 202.415 959.088 202.319 958.4L205.415 958.16C205.527 959.536 205.655 960.656 205.799 961.52C205.943 962.384 206.135 963.056 206.375 963.536C206.631 964 206.967 964.32 207.383 964.496C207.815 964.672 208.375 964.76 209.063 964.76C209.671 964.76 210.103 964.92 210.359 965.24C210.631 965.544 210.767 965.928 210.767 966.392C210.767 966.888 210.599 967.304 210.263 967.64C209.943 967.96 209.463 968.12 208.823 968.12C208.391 968.12 207.943 968.08 207.479 968C207.015 967.936 206.567 967.8 206.135 967.592C205.703 967.368 205.319 967.048 204.983 966.632C204.647 966.216 204.383 965.664 204.191 964.976L204.623 965.12C204.399 965.92 204.095 966.536 203.711 966.968C203.327 967.4 202.855 967.704 202.295 967.88C201.735 968.04 201.063 968.12 200.279 968.12C199.559 968.12 198.919 968.024 198.359 967.832C197.799 967.64 197.351 967.328 197.015 966.896C196.695 966.448 196.527 965.848 196.511 965.096H197.327C197.007 965.992 196.639 966.656 196.223 967.088C195.807 967.52 195.303 967.8 194.711 967.928C194.119 968.056 193.375 968.12 192.479 968.12C191.935 968.12 191.399 968.064 190.871 967.952C190.343 967.824 189.871 967.544 189.455 967.112C189.039 966.664 188.735 965.96 188.543 965L189.839 964.952C189.503 965.896 189.063 966.592 188.519 967.04C187.991 967.488 187.383 967.784 186.695 967.928C186.007 968.056 185.239 968.12 184.391 968.12ZM208.836 968.12L209.076 964.76C210.036 964.76 210.772 964.712 211.284 964.616C211.796 964.52 212.148 964.344 212.34 964.088C212.548 963.816 212.652 963.432 212.652 962.936C212.652 962.488 212.588 961.952 212.46 961.328C212.348 960.704 212.196 960.056 212.004 959.384C211.828 958.712 211.636 958.096 211.428 957.536L214.74 956.624C214.948 957.168 215.148 957.8 215.34 958.52C215.532 959.24 215.692 959.984 215.82 960.752C215.948 961.504 216.012 962.232 216.012 962.936C216.012 964.024 215.836 964.912 215.484 965.6C215.132 966.272 214.636 966.792 213.996 967.16C213.372 967.528 212.62 967.784 211.74 967.928C210.86 968.056 209.892 968.12 208.836 968.12ZM215.34 954.68C214.876 954.68 214.476 954.52 214.14 954.2C213.82 953.864 213.66 953.472 213.66 953.024C213.66 952.56 213.82 952.16 214.14 951.824C214.476 951.488 214.876 951.32 215.34 951.32C215.788 951.32 216.172 951.488 216.492 951.824C216.812 952.16 216.972 952.56 216.972 953.024C216.972 953.472 216.812 953.864 216.492 954.2C216.172 954.52 215.788 954.68 215.34 954.68ZM211.188 954.656C210.724 954.656 210.324 954.496 209.988 954.176C209.668 953.84 209.508 953.448 209.508 953C209.508 952.536 209.668 952.136 209.988 951.8C210.324 951.464 210.724 951.296 211.188 951.296C211.636 951.296 212.02 951.464 212.34 951.8C212.66 952.136 212.82 952.536 212.82 953C212.82 953.448 212.66 953.84 212.34 954.176C212.02 954.496 211.636 954.656 211.188 954.656Z" fill="white"/>
<rect width="9" height="32" transform="matrix(-1 0 0 1 280 578)" fill="white"/>
<path d="M249.667 138.667C249.667 138.313 249.526 137.974 249.276 137.724C249.026 137.474 248.687 137.333 248.333 137.333H243C242.646 137.333 242.307 137.474 242.057 137.724C241.807 137.974 241.667 138.313 241.667 138.667V145.333C241.667 145.687 241.807 146.026 242.057 146.276C242.307 146.526 242.646 146.667 243 146.667H248.333C248.687 146.667 249.026 146.526 249.276 146.276C249.526 146.026 249.667 145.687 249.667 145.333V138.667ZM236.333 138.667C236.333 138.313 236.193 137.974 235.943 137.724C235.693 137.474 235.354 137.333 235 137.333H229.667C229.313 137.333 228.974 137.474 228.724 137.724C228.474 137.974 228.333 138.313 228.333 138.667V141.333C228.333 141.687 228.474 142.026 228.724 142.276C228.974 142.526 229.313 142.667 229.667 142.667H235C235.354 142.667 235.693 142.526 235.943 142.276C236.193 142.026 236.333 141.687 236.333 141.333V138.667ZM249.667 153.333C249.667 152.98 249.526 152.641 249.276 152.391C249.026 152.14 248.687 152 248.333 152H243C242.646 152 242.307 152.14 242.057 152.391C241.807 152.641 241.667 152.98 241.667 153.333V157.333C241.667 157.687 241.807 158.026 242.057 158.276C242.307 158.526 242.646 158.667 243 158.667H248.333C248.687 158.667 249.026 158.526 249.276 158.276C249.526 158.026 249.667 157.687 249.667 157.333V153.333ZM236.333 149.333C236.333 148.98 236.193 148.641 235.943 148.391C235.693 148.14 235.354 148 235 148H229.667C229.313 148 228.974 148.14 228.724 148.391C228.474 148.641 228.333 148.98 228.333 149.333V157.333C228.333 157.687 228.474 158.026 228.724 158.276C228.974 158.526 229.313 158.667 229.667 158.667H235C235.354 158.667 235.693 158.526 235.943 158.276C236.193 158.026 236.333 157.687 236.333 157.333V149.333Z" stroke="white" stroke-width="1.33333"/>
<path d="M97.968 166.432C97.6 165.12 97.296 163.872 97.056 162.688C96.816 161.52 96.64 160.456 96.528 159.496C96.416 158.552 96.36 157.76 96.36 157.12C96.36 155.696 96.584 154.432 97.032 153.328C97.496 152.208 98.088 151.248 98.808 150.448C99.544 149.632 100.328 148.96 101.16 148.432C102.008 147.904 102.824 147.512 103.608 147.256C104.408 147 105.088 146.872 105.648 146.872C106.224 146.872 106.696 147.024 107.064 147.328C107.448 147.632 107.784 148.072 108.072 148.648C108.376 149.208 108.696 149.888 109.032 150.688C109.416 151.552 109.752 152.208 110.04 152.656C110.344 153.088 110.656 153.384 110.976 153.544C111.296 153.688 111.656 153.76 112.056 153.76C112.664 153.76 113.104 153.92 113.376 154.24C113.648 154.544 113.784 154.928 113.784 155.392C113.784 155.888 113.616 156.304 113.28 156.64C112.944 156.96 112.456 157.12 111.816 157.12C111.032 157.12 110.352 156.992 109.776 156.736C109.2 156.464 108.68 156.08 108.216 155.584L108.888 154.84C108.744 155.336 108.544 155.784 108.288 156.184C108.048 156.568 107.72 156.872 107.304 157.096C106.904 157.32 106.4 157.432 105.792 157.432C105.248 157.432 104.704 157.352 104.16 157.192C103.632 157.032 103.112 156.792 102.6 156.472C102.104 156.152 101.624 155.76 101.16 155.296C100.696 154.816 100.256 154.264 99.84 153.64L100.728 153.472C100.376 154.016 100.12 154.624 99.96 155.296C99.8 155.968 99.72 156.632 99.72 157.288C99.72 157.8 99.76 158.392 99.84 159.064C99.936 159.752 100.056 160.472 100.2 161.224C100.344 161.992 100.504 162.744 100.68 163.48C100.872 164.232 101.056 164.92 101.232 165.544L97.968 166.432ZM105.744 154.048C106.048 154.048 106.288 154.008 106.464 153.928C106.656 153.832 106.776 153.696 106.824 153.52C106.888 153.344 106.872 153.136 106.776 152.896C106.616 152.464 106.456 152.088 106.296 151.768C106.152 151.448 106.008 151.176 105.864 150.952C105.736 150.728 105.6 150.56 105.456 150.448C105.328 150.336 105.192 150.28 105.048 150.28C104.84 150.28 104.584 150.352 104.28 150.496C103.976 150.624 103.672 150.784 103.368 150.976C103.064 151.168 102.808 151.36 102.6 151.552C102.392 151.728 102.272 151.864 102.24 151.96L101.952 151.168C102.24 151.728 102.584 152.232 102.984 152.68C103.4 153.112 103.848 153.448 104.328 153.688C104.808 153.928 105.28 154.048 105.744 154.048ZM111.867 157.12L112.107 153.76H115.467C116.027 153.76 116.451 153.728 116.739 153.664C117.043 153.6 117.251 153.504 117.363 153.376C117.475 153.232 117.531 153.064 117.531 152.872C117.531 152.584 117.403 152.248 117.147 151.864C116.907 151.48 116.587 151.08 116.187 150.664C115.803 150.248 115.395 149.832 114.963 149.416C114.531 148.984 114.115 148.584 113.715 148.216C113.331 147.848 113.011 147.528 112.755 147.256C112.515 146.968 112.395 146.76 112.395 146.632C112.395 146.184 112.419 145.832 112.467 145.576C112.515 145.304 112.579 145.088 112.659 144.928C112.755 144.768 112.859 144.632 112.971 144.52C113.243 144.248 113.651 143.944 114.195 143.608C114.739 143.256 115.379 142.888 116.115 142.504C116.867 142.104 117.707 141.688 118.635 141.256C119.563 140.808 120.547 140.344 121.587 139.864L122.955 142.792C121.899 143.256 120.955 143.688 120.123 144.088C119.307 144.472 118.571 144.832 117.915 145.168C117.275 145.488 116.699 145.792 116.187 146.08C115.691 146.368 115.243 146.64 114.843 146.896L115.083 145.12C115.771 145.712 116.395 146.272 116.955 146.8C117.515 147.328 118.035 147.856 118.515 148.384C118.995 148.912 119.443 149.456 119.859 150.016C120.291 150.576 120.707 151.184 121.107 151.84C121.459 152.4 121.819 152.816 122.187 153.088C122.571 153.36 122.939 153.544 123.291 153.64C123.659 153.72 123.987 153.76 124.275 153.76C124.883 153.76 125.315 153.92 125.571 154.24C125.843 154.544 125.979 154.928 125.979 155.392C125.979 155.888 125.811 156.304 125.475 156.64C125.139 156.96 124.659 157.12 124.035 157.12C123.507 157.12 122.939 157.032 122.331 156.856C121.723 156.664 121.155 156.36 120.627 155.944C120.099 155.528 119.699 154.96 119.427 154.24L120.723 154.336C120.483 154.848 120.195 155.288 119.859 155.656C119.539 156.008 119.155 156.296 118.707 156.52C118.259 156.728 117.747 156.88 117.171 156.976C116.595 157.072 115.947 157.12 115.227 157.12H111.867ZM139.751 157.12C139.015 157.12 138.327 157.064 137.687 156.952C137.063 156.84 136.487 156.648 135.959 156.376C135.431 156.088 134.959 155.696 134.543 155.2C134.143 154.704 133.807 154.08 133.535 153.328L135.431 151.816C135.719 152.328 136.071 152.728 136.487 153.016C136.903 153.288 137.399 153.48 137.975 153.592C138.551 153.704 139.223 153.76 139.991 153.76C140.599 153.76 141.031 153.92 141.287 154.24C141.543 154.544 141.671 154.928 141.671 155.392C141.671 155.888 141.503 156.304 141.167 156.64C140.847 156.96 140.375 157.12 139.751 157.12ZM124.055 157.12L124.295 153.76C125.159 153.76 126.015 153.712 126.863 153.616C127.711 153.52 128.535 153.376 129.335 153.184C130.135 152.992 130.895 152.744 131.615 152.44C132.351 152.136 133.039 151.768 133.679 151.336C133.199 151.048 132.679 150.8 132.119 150.592C131.559 150.384 130.959 150.232 130.319 150.136C129.695 150.024 129.031 149.968 128.327 149.968C128.071 149.968 127.799 149.976 127.511 149.992C127.239 150.008 126.959 150.04 126.671 150.088C126.383 150.12 126.095 150.168 125.807 150.232L125.327 146.944C125.791 146.816 126.279 146.728 126.791 146.68C127.319 146.616 127.783 146.584 128.183 146.584C129.047 146.584 129.839 146.68 130.559 146.872C131.295 147.064 131.967 147.304 132.575 147.592C133.199 147.88 133.775 148.168 134.303 148.456C134.847 148.744 135.359 148.984 135.839 149.176C136.335 149.368 136.815 149.464 137.279 149.464H138.167L138.551 152.656C137.863 152.688 137.215 152.824 136.607 153.064C136.015 153.288 135.423 153.576 134.831 153.928C134.255 154.264 133.631 154.616 132.959 154.984C132.303 155.352 131.559 155.696 130.727 156.016C129.895 156.336 128.935 156.6 127.847 156.808C126.759 157.016 125.495 157.12 124.055 157.12ZM139.758 157.12L139.998 153.76C140.574 153.76 141.07 153.704 141.486 153.592C141.902 153.48 142.254 153.256 142.542 152.92C142.83 152.568 143.07 152.056 143.262 151.384C143.47 150.712 143.654 149.816 143.814 148.696L146.958 149.224C146.926 149.464 146.878 149.744 146.814 150.064C146.766 150.384 146.718 150.712 146.67 151.048C146.638 151.368 146.622 151.672 146.622 151.96C146.622 152.248 146.678 152.504 146.79 152.728C146.902 152.952 147.078 153.144 147.318 153.304C147.574 153.448 147.902 153.56 148.302 153.64C148.718 153.72 149.222 153.76 149.814 153.76C150.422 153.76 150.854 153.92 151.11 154.24C151.366 154.544 151.494 154.928 151.494 155.392C151.494 155.888 151.326 156.304 150.99 156.64C150.67 156.96 150.198 157.12 149.574 157.12C148.854 157.12 148.198 157.064 147.606 156.952C147.03 156.84 146.526 156.656 146.094 156.4C145.678 156.128 145.334 155.776 145.062 155.344C144.806 154.896 144.646 154.352 144.582 153.712H145.734C145.446 154.48 145.078 155.096 144.63 155.56C144.198 156.008 143.71 156.344 143.166 156.568C142.622 156.792 142.054 156.936 141.462 157C140.886 157.08 140.318 157.12 139.758 157.12ZM147.462 146.536C146.998 146.536 146.598 146.376 146.262 146.056C145.942 145.72 145.782 145.328 145.782 144.88C145.782 144.416 145.942 144.016 146.262 143.68C146.598 143.344 146.998 143.176 147.462 143.176C147.91 143.176 148.294 143.344 148.614 143.68C148.934 144.016 149.094 144.416 149.094 144.88C149.094 145.328 148.934 145.72 148.614 146.056C148.294 146.376 147.91 146.536 147.462 146.536ZM143.31 146.512C142.846 146.512 142.446 146.352 142.11 146.032C141.79 145.696 141.63 145.304 141.63 144.856C141.63 144.392 141.79 143.992 142.11 143.656C142.446 143.32 142.846 143.152 143.31 143.152C143.758 143.152 144.142 143.32 144.462 143.656C144.782 143.992 144.942 144.392 144.942 144.856C144.942 145.304 144.782 145.696 144.462 146.032C144.142 146.352 143.758 146.512 143.31 146.512ZM149.578 157.12L149.818 153.76C150.554 153.76 151.082 153.688 151.402 153.544C151.722 153.384 151.914 153.096 151.978 152.68C152.042 152.248 152.058 151.624 152.026 150.808L151.594 139.432H154.978L155.458 151.048C155.49 151.976 155.45 152.816 155.338 153.568C155.242 154.304 154.994 154.936 154.594 155.464C154.21 155.992 153.61 156.4 152.794 156.688C151.994 156.976 150.922 157.12 149.578 157.12ZM158.623 157L158.119 139.432H161.479L161.983 157H158.623ZM182.164 157.12C181.028 157.12 180.044 156.976 179.212 156.688C178.396 156.384 177.764 155.904 177.316 155.248C176.868 154.576 176.612 153.68 176.548 152.56L176.116 142.888H179.5L179.908 151.384C179.94 152.04 180.044 152.544 180.22 152.896C180.412 153.232 180.684 153.464 181.036 153.592C181.388 153.704 181.844 153.76 182.404 153.76C183.012 153.76 183.444 153.92 183.7 154.24C183.956 154.544 184.084 154.928 184.084 155.392C184.084 155.888 183.916 156.304 183.58 156.64C183.26 156.96 182.788 157.12 182.164 157.12ZM177.772 154.888C176.7 155.128 175.668 155.24 174.676 155.224C173.684 155.192 172.796 155.016 172.012 154.696C171.228 154.36 170.604 153.88 170.14 153.256C169.692 152.632 169.468 151.84 169.468 150.88C169.468 150.032 169.652 149.264 170.02 148.576C170.404 147.872 170.932 147.256 171.604 146.728C172.292 146.2 173.092 145.752 174.004 145.384C174.916 145.016 175.908 144.736 176.98 144.544L177.316 147.952C176.628 147.984 176.004 148.08 175.444 148.24C174.9 148.384 174.428 148.576 174.028 148.816C173.644 149.056 173.348 149.328 173.14 149.632C172.932 149.92 172.828 150.232 172.828 150.568C172.828 150.84 172.924 151.064 173.116 151.24C173.308 151.416 173.564 151.56 173.884 151.672C174.204 151.768 174.572 151.824 174.988 151.84C175.404 151.856 175.828 151.832 176.26 151.768C176.708 151.704 177.148 151.6 177.58 151.456L177.772 154.888ZM177.844 140.416C177.38 140.416 176.98 140.256 176.644 139.936C176.324 139.6 176.164 139.208 176.164 138.76C176.164 138.296 176.324 137.896 176.644 137.56C176.98 137.224 177.38 137.056 177.844 137.056C178.292 137.056 178.676 137.224 178.996 137.56C179.316 137.896 179.476 138.296 179.476 138.76C179.476 139.208 179.316 139.6 178.996 139.936C178.676 140.256 178.292 140.416 177.844 140.416ZM173.692 140.392C173.228 140.392 172.828 140.232 172.492 139.912C172.172 139.576 172.012 139.184 172.012 138.736C172.012 138.272 172.172 137.872 172.492 137.536C172.828 137.2 173.228 137.032 173.692 137.032C174.14 137.032 174.524 137.2 174.844 137.536C175.164 137.872 175.324 138.272 175.324 138.736C175.324 139.184 175.164 139.576 174.844 139.912C174.524 140.232 174.14 140.392 173.692 140.392ZM182.156 157.12L182.396 153.76C183.26 153.76 184.116 153.712 184.964 153.616C185.812 153.52 186.636 153.376 187.436 153.184C188.236 152.992 188.996 152.744 189.716 152.44C190.452 152.136 191.14 151.768 191.78 151.336C191.3 151.048 190.78 150.8 190.22 150.592C189.66 150.384 189.06 150.232 188.42 150.136C187.796 150.024 187.132 149.968 186.428 149.968C186.172 149.968 185.9 149.976 185.612 149.992C185.34 150.008 185.06 150.04 184.772 150.088C184.484 150.12 184.196 150.168 183.908 150.232L183.428 146.944C183.892 146.816 184.38 146.728 184.892 146.68C185.42 146.616 185.884 146.584 186.284 146.584C187.148 146.584 187.94 146.68 188.66 146.872C189.396 147.064 190.068 147.304 190.676 147.592C191.3 147.88 191.876 148.168 192.404 148.456C192.948 148.744 193.46 148.984 193.94 149.176C194.436 149.368 194.916 149.464 195.38 149.464H196.268L196.652 152.656C195.964 152.688 195.316 152.824 194.708 153.064C194.116 153.288 193.524 153.576 192.932 153.928C192.356 154.264 191.732 154.616 191.06 154.984C190.404 155.352 189.66 155.696 188.828 156.016C187.996 156.336 187.036 156.6 185.948 156.808C184.86 157.016 183.596 157.12 182.156 157.12ZM198.618 162.52L197.922 159.16C199.058 159.016 200.05 158.84 200.898 158.632C201.746 158.44 202.458 158.168 203.034 157.816C203.61 157.464 204.042 156.984 204.33 156.376C204.618 155.752 204.762 154.952 204.762 153.976C204.762 153.032 204.618 152.28 204.33 151.72C204.042 151.16 203.658 150.88 203.178 150.88C202.842 150.88 202.562 151 202.338 151.24C202.114 151.464 201.946 151.736 201.834 152.056C201.738 152.36 201.69 152.632 201.69 152.872C201.69 153.016 201.73 153.168 201.81 153.328C201.89 153.488 202.066 153.624 202.338 153.736C202.61 153.848 203.034 153.912 203.61 153.928C204.202 153.944 205.002 153.888 206.01 153.76H210.042C210.65 153.76 211.082 153.92 211.338 154.24C211.61 154.544 211.746 154.928 211.746 155.392C211.746 155.888 211.578 156.304 211.242 156.64C210.906 156.96 210.426 157.12 209.802 157.12H203.202C202.194 157.12 201.33 157 200.61 156.76C199.89 156.52 199.338 156.136 198.954 155.608C198.57 155.064 198.378 154.344 198.378 153.448C198.378 152.728 198.498 152.008 198.738 151.288C198.994 150.568 199.346 149.912 199.794 149.32C200.242 148.712 200.762 148.232 201.354 147.88C201.962 147.512 202.618 147.328 203.322 147.328C204.282 147.328 205.122 147.624 205.842 148.216C206.562 148.808 207.122 149.592 207.522 150.568C207.938 151.544 208.146 152.608 208.146 153.76C208.146 155.568 207.762 157.104 206.994 158.368C206.226 159.632 205.13 160.608 203.706 161.296C202.282 162 200.586 162.408 198.618 162.52ZM209.836 157.12L210.076 153.76C210.812 153.76 211.34 153.688 211.66 153.544C211.98 153.384 212.172 153.096 212.236 152.68C212.3 152.248 212.316 151.624 212.284 150.808L211.852 139.432H215.236L215.716 151.048C215.748 151.976 215.708 152.816 215.596 153.568C215.5 154.304 215.252 154.936 214.852 155.464C214.468 155.992 213.868 156.4 213.052 156.688C212.252 156.976 211.18 157.12 209.836 157.12Z" fill="white"/>
<path d="M121.624 286.328C121.624 285.96 121.656 285.528 121.72 285.032C121.784 284.536 121.904 283.976 122.08 283.352C122.256 282.712 122.52 282 122.872 281.216L125.824 282.248C125.648 282.744 125.496 283.2 125.368 283.616C125.24 284.016 125.144 284.392 125.08 284.744C125.016 285.08 124.984 285.416 124.984 285.752C124.984 286.536 125.16 287.176 125.512 287.672C125.88 288.184 126.392 288.56 127.048 288.8C127.704 289.056 128.464 289.184 129.328 289.184C130.32 289.184 131.136 289.048 131.776 288.776C132.416 288.52 132.912 288.176 133.264 287.744C133.616 287.328 133.864 286.872 134.008 286.376C134.152 285.864 134.224 285.368 134.224 284.888C134.224 284.232 134.112 283.456 133.888 282.56C133.664 281.648 133.264 280.624 132.688 279.488L135.784 278.168C136.104 278.728 136.4 279.384 136.672 280.136C136.944 280.872 137.16 281.64 137.32 282.44C137.496 283.24 137.584 284 137.584 284.72C137.584 285.36 137.504 286.04 137.344 286.76C137.184 287.464 136.912 288.16 136.528 288.848C136.16 289.536 135.656 290.152 135.016 290.696C134.376 291.256 133.584 291.704 132.64 292.04C131.696 292.376 130.568 292.544 129.256 292.544C128.2 292.544 127.208 292.424 126.28 292.184C125.368 291.96 124.56 291.6 123.856 291.104C123.168 290.608 122.624 289.96 122.224 289.16C121.824 288.376 121.624 287.432 121.624 286.328ZM129.448 277.208C128.952 277.208 128.528 277.04 128.176 276.704C127.84 276.368 127.672 275.952 127.672 275.456C127.672 274.96 127.84 274.536 128.176 274.184C128.528 273.832 128.952 273.656 129.448 273.656C129.928 273.656 130.336 273.832 130.672 274.184C131.024 274.536 131.2 274.96 131.2 275.456C131.2 275.952 131.024 276.368 130.672 276.704C130.336 277.04 129.928 277.208 129.448 277.208ZM140.157 292.52L139.461 289.16C140.597 289.016 141.589 288.84 142.437 288.632C143.285 288.44 143.997 288.168 144.573 287.816C145.149 287.464 145.581 286.984 145.869 286.376C146.157 285.752 146.301 284.952 146.301 283.976C146.301 283.032 146.157 282.28 145.869 281.72C145.581 281.16 145.197 280.88 144.717 280.88C144.381 280.88 144.101 281 143.877 281.24C143.653 281.464 143.485 281.736 143.373 282.056C143.277 282.36 143.229 282.632 143.229 282.872C143.229 283.016 143.269 283.168 143.349 283.328C143.429 283.488 143.605 283.624 143.877 283.736C144.149 283.848 144.573 283.912 145.149 283.928C145.741 283.944 146.541 283.888 147.549 283.76H151.581C152.189 283.76 152.621 283.92 152.877 284.24C153.149 284.544 153.285 284.928 153.285 285.392C153.285 285.888 153.117 286.304 152.781 286.64C152.445 286.96 151.965 287.12 151.341 287.12H144.741C143.733 287.12 142.869 287 142.149 286.76C141.429 286.52 140.877 286.136 140.493 285.608C140.109 285.064 139.917 284.344 139.917 283.448C139.917 282.728 140.037 282.008 140.277 281.288C140.533 280.568 140.885 279.912 141.333 279.32C141.781 278.712 142.301 278.232 142.893 277.88C143.501 277.512 144.157 277.328 144.861 277.328C145.821 277.328 146.661 277.624 147.381 278.216C148.101 278.808 148.661 279.592 149.061 280.568C149.477 281.544 149.685 282.608 149.685 283.76C149.685 285.568 149.301 287.104 148.533 288.368C147.765 289.632 146.669 290.608 145.245 291.296C143.821 292 142.125 292.408 140.157 292.52ZM151.375 287.12L151.615 283.76C152.015 283.76 152.319 283.68 152.527 283.52C152.735 283.36 152.943 283.08 153.151 282.68C153.359 282.28 153.647 281.736 154.015 281.048C154.415 280.28 154.831 279.64 155.263 279.128C155.695 278.6 156.127 278.184 156.559 277.88C157.007 277.56 157.447 277.336 157.879 277.208C158.327 277.064 158.767 276.992 159.199 276.992C159.791 276.992 160.343 277.12 160.855 277.376C161.383 277.616 161.887 278.04 162.367 278.648C162.847 279.24 163.303 280.056 163.735 281.096C164.039 281.816 164.343 282.368 164.647 282.752C164.951 283.136 165.263 283.4 165.583 283.544C165.919 283.688 166.255 283.76 166.591 283.76C167.199 283.76 167.631 283.92 167.887 284.24C168.143 284.544 168.271 284.928 168.271 285.392C168.271 285.888 168.103 286.304 167.767 286.64C167.431 286.96 166.959 287.12 166.351 287.12C165.567 287.12 164.855 286.992 164.215 286.736C163.575 286.48 163.071 286.096 162.703 285.584L163.399 285.056C163.255 285.392 163.039 285.744 162.751 286.112C162.479 286.48 162.119 286.792 161.671 287.048C161.239 287.304 160.719 287.432 160.111 287.432C159.711 287.432 159.239 287.352 158.695 287.192C158.167 287.048 157.615 286.8 157.039 286.448C156.479 286.08 155.959 285.584 155.479 284.96C155.175 285.52 154.839 285.96 154.471 286.28C154.103 286.584 153.671 286.8 153.175 286.928C152.679 287.056 152.079 287.12 151.375 287.12ZM156.871 282.128C157.031 282.368 157.223 282.608 157.447 282.848C157.671 283.088 157.919 283.304 158.191 283.496C158.463 283.672 158.751 283.816 159.055 283.928C159.375 284.04 159.687 284.096 159.991 284.096C160.311 284.096 160.575 283.976 160.783 283.736C160.991 283.48 160.999 283.104 160.807 282.608C160.727 282.4 160.615 282.168 160.471 281.912C160.343 281.64 160.191 281.384 160.015 281.144C159.855 280.904 159.671 280.704 159.463 280.544C159.271 280.384 159.071 280.304 158.863 280.304C158.655 280.304 158.439 280.368 158.215 280.496C157.991 280.624 157.767 280.824 157.543 281.096C157.319 281.352 157.095 281.696 156.871 282.128ZM166.352 287.12L166.592 283.76C167.344 283.76 167.872 283.688 168.176 283.544C168.496 283.384 168.688 283.096 168.752 282.68C168.816 282.248 168.832 281.624 168.8 280.808L168.416 269.432H171.824L172.232 280.784C172.264 281.584 172.36 282.2 172.52 282.632C172.68 283.064 172.944 283.36 173.312 283.52C173.696 283.68 174.208 283.76 174.848 283.76C175.456 283.76 175.888 283.92 176.144 284.24C176.4 284.544 176.528 284.928 176.528 285.392C176.528 285.888 176.36 286.304 176.024 286.64C175.688 286.96 175.216 287.12 174.608 287.12C173.904 287.12 173.248 287.04 172.64 286.88C172.032 286.72 171.528 286.416 171.128 285.968C170.728 285.52 170.464 284.872 170.336 284.024L171.392 284.048C171.12 284.88 170.768 285.52 170.336 285.968C169.904 286.4 169.36 286.704 168.704 286.88C168.064 287.04 167.28 287.12 166.352 287.12ZM174.506 287.12L174.746 283.76C175.866 283.76 176.874 283.688 177.77 283.544C178.666 283.384 179.45 283.176 180.122 282.92C180.81 282.664 181.378 282.368 181.826 282.032C182.29 281.696 182.634 281.344 182.858 280.976C183.098 280.592 183.218 280.216 183.218 279.848C183.218 279.64 183.162 279.448 183.05 279.272C182.954 279.08 182.786 278.928 182.546 278.816C182.306 278.688 181.978 278.624 181.562 278.624C181.354 278.624 181.106 278.648 180.818 278.696C180.53 278.744 180.242 278.816 179.954 278.912C179.666 278.992 179.394 279.104 179.138 279.248C179.474 279.504 179.842 279.832 180.242 280.232C180.642 280.616 181.042 281.024 181.442 281.456C181.842 281.872 182.186 282.28 182.474 282.68C182.81 282.824 183.178 282.968 183.578 283.112C183.994 283.24 184.442 283.352 184.922 283.448C185.402 283.544 185.906 283.624 186.434 283.688C186.962 283.736 187.506 283.76 188.066 283.76C188.674 283.76 189.106 283.92 189.362 284.24C189.634 284.544 189.77 284.928 189.77 285.392C189.77 285.888 189.602 286.304 189.266 286.64C188.93 286.96 188.45 287.12 187.826 287.12C186.546 287.12 185.41 287.024 184.418 286.832C183.426 286.624 182.538 286.328 181.754 285.944C180.986 285.544 180.266 285.064 179.594 284.504C179.402 284.168 179.13 283.808 178.778 283.424C178.442 283.024 178.082 282.64 177.698 282.272C177.33 281.904 176.994 281.6 176.69 281.36C176.61 281.296 176.514 281.128 176.402 280.856C176.306 280.568 176.218 280.272 176.138 279.968C176.058 279.648 176.018 279.424 176.018 279.296C176.018 278.928 176.186 278.536 176.522 278.12C176.874 277.704 177.338 277.32 177.914 276.968C178.506 276.6 179.154 276.304 179.858 276.08C180.578 275.84 181.306 275.72 182.042 275.72C183.034 275.72 183.858 275.872 184.514 276.176C185.186 276.464 185.69 276.872 186.026 277.4C186.362 277.912 186.53 278.512 186.53 279.2C186.53 279.968 186.362 280.736 186.026 281.504C185.69 282.256 185.194 282.968 184.538 283.64C183.898 284.312 183.09 284.912 182.114 285.44C181.154 285.952 180.034 286.36 178.754 286.664C177.49 286.968 176.074 287.12 174.506 287.12ZM187.844 287.12L188.084 283.76C188.484 283.76 188.788 283.68 188.996 283.52C189.204 283.36 189.412 283.08 189.62 282.68C189.828 282.28 190.116 281.736 190.484 281.048C190.884 280.28 191.3 279.64 191.732 279.128C192.164 278.6 192.596 278.184 193.028 277.88C193.476 277.56 193.916 277.336 194.348 277.208C194.796 277.064 195.236 276.992 195.668 276.992C196.26 276.992 196.812 277.12 197.324 277.376C197.852 277.616 198.356 278.04 198.836 278.648C199.316 279.24 199.772 280.056 200.204 281.096C200.508 281.816 200.812 282.368 201.116 282.752C201.42 283.136 201.732 283.4 202.052 283.544C202.388 283.688 202.724 283.76 203.06 283.76C203.668 283.76 204.1 283.92 204.356 284.24C204.612 284.544 204.74 284.928 204.74 285.392C204.74 285.888 204.572 286.304 204.236 286.64C203.9 286.96 203.428 287.12 202.82 287.12C202.036 287.12 201.324 286.992 200.684 286.736C200.044 286.48 199.54 286.096 199.172 285.584L199.868 285.056C199.724 285.392 199.508 285.744 199.22 286.112C198.948 286.48 198.588 286.792 198.14 287.048C197.708 287.304 197.188 287.432 196.58 287.432C196.18 287.432 195.708 287.352 195.164 287.192C194.636 287.048 194.084 286.8 193.508 286.448C192.948 286.08 192.428 285.584 191.948 284.96C191.644 285.52 191.308 285.96 190.94 286.28C190.572 286.584 190.14 286.8 189.644 286.928C189.148 287.056 188.548 287.12 187.844 287.12ZM193.34 282.128C193.5 282.368 193.692 282.608 193.916 282.848C194.14 283.088 194.388 283.304 194.66 283.496C194.932 283.672 195.22 283.816 195.524 283.928C195.844 284.04 196.156 284.096 196.46 284.096C196.78 284.096 197.044 283.976 197.252 283.736C197.46 283.48 197.468 283.104 197.276 282.608C197.196 282.4 197.084 282.168 196.94 281.912C196.812 281.64 196.66 281.384 196.484 281.144C196.324 280.904 196.14 280.704 195.932 280.544C195.74 280.384 195.54 280.304 195.332 280.304C195.124 280.304 194.908 280.368 194.684 280.496C194.46 280.624 194.236 280.824 194.012 281.096C193.788 281.352 193.564 281.696 193.34 282.128ZM202.82 287.12L203.06 283.76C203.796 283.76 204.324 283.688 204.644 283.544C204.964 283.384 205.156 283.096 205.22 282.68C205.284 282.248 205.3 281.624 205.268 280.808L204.836 269.432H208.22L208.7 281.048C208.732 281.976 208.692 282.816 208.58 283.568C208.484 284.304 208.236 284.936 207.836 285.464C207.452 285.992 206.852 286.4 206.036 286.688C205.236 286.976 204.164 287.12 202.82 287.12ZM211.865 287L211.361 269.432H214.721L215.225 287H211.865Z" fill="white"/>
<path d="M154.2 351.504L154.824 348.144C156.376 348.144 157.728 348.104 158.88 348.024C160.032 347.928 160.984 347.792 161.736 347.616C162.504 347.424 163.072 347.176 163.44 346.872C163.824 346.568 164.016 346.2 164.016 345.768C164.016 345.192 163.92 344.504 163.728 343.704C163.536 342.888 163.288 342.064 162.984 341.232L166.128 340.32C166.336 340.864 166.536 341.464 166.728 342.12C166.92 342.76 167.072 343.408 167.184 344.064C167.312 344.704 167.376 345.304 167.376 345.864C167.376 346.856 167.16 347.712 166.728 348.432C166.296 349.136 165.576 349.72 164.568 350.184C163.576 350.632 162.232 350.96 160.536 351.168C158.84 351.392 156.728 351.504 154.2 351.504ZM154.176 351.504C152.448 351.504 150.984 351.368 149.784 351.096C148.6 350.84 147.632 350.472 146.88 349.992C146.144 349.496 145.608 348.92 145.272 348.264C144.936 347.608 144.768 346.888 144.768 346.104C144.768 345.592 144.808 345.08 144.888 344.568C144.984 344.04 145.096 343.528 145.224 343.032C145.368 342.536 145.496 342.088 145.608 341.688L148.608 342.384C148.544 342.672 148.472 342.984 148.392 343.32C148.312 343.656 148.248 343.984 148.2 344.304C148.152 344.608 148.128 344.888 148.128 345.144C148.128 345.736 148.336 346.264 148.752 346.728C149.184 347.176 149.888 347.528 150.864 347.784C151.84 348.024 153.152 348.144 154.8 348.144L155.28 350.736L154.176 351.504ZM156.024 357.12C155.56 357.12 155.16 356.96 154.824 356.64C154.504 356.32 154.344 355.928 154.344 355.464C154.344 355 154.504 354.592 154.824 354.24C155.16 353.904 155.56 353.736 156.024 353.736C156.488 353.736 156.88 353.904 157.2 354.24C157.536 354.592 157.704 355 157.704 355.464C157.704 355.928 157.536 356.32 157.2 356.64C156.88 356.96 156.488 357.12 156.024 357.12ZM184.906 351.12C183.786 351.12 182.858 351.04 182.122 350.88C181.402 350.704 180.834 350.44 180.418 350.088C180.002 349.72 179.706 349.264 179.53 348.72C179.354 348.176 179.25 347.528 179.218 346.776L178.714 333.432H182.074L182.578 345.168C182.61 345.904 182.69 346.456 182.818 346.824C182.946 347.192 183.186 347.44 183.538 347.568C183.906 347.696 184.442 347.76 185.146 347.76C185.754 347.76 186.186 347.92 186.442 348.24C186.714 348.544 186.85 348.928 186.85 349.392C186.85 349.888 186.682 350.304 186.346 350.64C186.01 350.96 185.53 351.12 184.906 351.12ZM171.994 351.12C171.562 351.12 171.122 351.08 170.674 351C170.242 350.936 169.938 350.888 169.762 350.856L170.218 347.376C171.322 347.52 172.394 347.552 173.434 347.472C174.49 347.376 175.434 347.12 176.266 346.704C177.114 346.272 177.786 345.648 178.282 344.832C178.778 344 179.026 342.928 179.026 341.616L180.322 345.384C180.13 346.472 179.802 347.376 179.338 348.096C178.89 348.8 178.354 349.36 177.73 349.776C177.122 350.176 176.474 350.472 175.786 350.664C175.098 350.856 174.426 350.976 173.77 351.024C173.114 351.088 172.522 351.12 171.994 351.12ZM177.202 347.832C176.962 347.368 176.618 346.824 176.17 346.2C175.722 345.56 175.17 344.856 174.514 344.088C173.874 343.304 173.138 342.48 172.306 341.616C171.474 340.736 170.554 339.832 169.546 338.904L171.634 336.624C173.122 338.032 174.33 339.216 175.258 340.176C176.186 341.136 176.922 341.944 177.466 342.6C178.026 343.24 178.45 343.792 178.738 344.256C179.042 344.72 179.298 345.168 179.506 345.6L177.202 347.832ZM203.186 351.12C202.37 351.12 201.586 351.048 200.834 350.904C200.082 350.744 199.402 350.536 198.794 350.28C198.202 350.024 197.714 349.736 197.33 349.416L199.49 347.088C200.066 347.328 200.658 347.504 201.266 347.616C201.874 347.712 202.594 347.76 203.426 347.76C204.034 347.76 204.466 347.92 204.722 348.24C204.994 348.544 205.13 348.928 205.13 349.392C205.13 349.888 204.962 350.304 204.626 350.64C204.29 350.96 203.81 351.12 203.186 351.12ZM184.922 351.12L185.162 347.76H190.538C192.042 347.76 193.29 347.704 194.282 347.592C195.29 347.48 196.09 347.32 196.682 347.112C197.274 346.888 197.69 346.632 197.93 346.344C198.186 346.056 198.314 345.744 198.314 345.408C198.314 345.104 198.242 344.816 198.098 344.544C197.954 344.256 197.738 344.024 197.45 343.848C197.162 343.672 196.786 343.584 196.322 343.584C195.73 343.584 195.138 343.728 194.546 344.016C193.954 344.288 193.378 344.664 192.818 345.144C192.258 345.608 191.722 346.128 191.21 346.704C190.714 347.28 190.258 347.864 189.842 348.456L186.218 347.952C186.89 346.912 187.618 345.928 188.402 345C189.202 344.056 190.042 343.232 190.922 342.528C191.818 341.808 192.738 341.248 193.682 340.848C194.642 340.432 195.618 340.224 196.61 340.224C197.666 340.224 198.57 340.44 199.322 340.872C200.074 341.304 200.65 341.896 201.05 342.648C201.466 343.4 201.674 344.272 201.674 345.264C201.674 346.304 201.378 347.24 200.786 348.072C200.21 348.904 199.226 349.592 197.834 350.136C197.242 350.36 196.602 350.544 195.914 350.688C195.226 350.832 194.418 350.936 193.49 351C192.562 351.08 191.45 351.12 190.154 351.12H184.922ZM187.418 348.672L186.914 333.432H190.274L190.706 344.952L187.418 348.672ZM203.203 351.12L203.443 347.76C204.179 347.76 204.707 347.688 205.027 347.544C205.347 347.384 205.539 347.096 205.603 346.68C205.667 346.248 205.683 345.624 205.651 344.808L205.219 333.432H208.603L209.083 345.048C209.115 345.976 209.075 346.816 208.963 347.568C208.867 348.304 208.619 348.936 208.219 349.464C207.835 349.992 207.235 350.4 206.419 350.688C205.619 350.976 204.547 351.12 203.203 351.12ZM212.248 351L211.744 333.432H215.104L215.608 351H212.248Z" fill="white"/>
<path d="M132.2 420.504L132.824 417.144C134.376 417.144 135.728 417.104 136.88 417.024C138.032 416.928 138.984 416.792 139.736 416.616C140.504 416.424 141.072 416.176 141.44 415.872C141.824 415.568 142.016 415.2 142.016 414.768C142.016 414.192 141.92 413.504 141.728 412.704C141.536 411.888 141.288 411.064 140.984 410.232L144.128 409.32C144.336 409.864 144.536 410.464 144.728 411.12C144.92 411.76 145.072 412.408 145.184 413.064C145.312 413.704 145.376 414.304 145.376 414.864C145.376 415.856 145.16 416.712 144.728 417.432C144.296 418.136 143.576 418.72 142.568 419.184C141.576 419.632 140.232 419.96 138.536 420.168C136.84 420.392 134.728 420.504 132.2 420.504ZM132.176 420.504C130.448 420.504 128.984 420.368 127.784 420.096C126.6 419.84 125.632 419.472 124.88 418.992C124.144 418.496 123.608 417.92 123.272 417.264C122.936 416.608 122.768 415.888 122.768 415.104C122.768 414.592 122.808 414.08 122.888 413.568C122.984 413.04 123.096 412.528 123.224 412.032C123.368 411.536 123.496 411.088 123.608 410.688L126.608 411.384C126.544 411.672 126.472 411.984 126.392 412.32C126.312 412.656 126.248 412.984 126.2 413.304C126.152 413.608 126.128 413.888 126.128 414.144C126.128 414.736 126.336 415.264 126.752 415.728C127.184 416.176 127.888 416.528 128.864 416.784C129.84 417.024 131.152 417.144 132.8 417.144L133.28 419.736L132.176 420.504ZM136.136 409.536C135.672 409.536 135.272 409.376 134.936 409.056C134.616 408.72 134.456 408.328 134.456 407.88C134.456 407.416 134.616 407.016 134.936 406.68C135.272 406.344 135.672 406.176 136.136 406.176C136.584 406.176 136.968 406.344 137.288 406.68C137.608 407.016 137.768 407.416 137.768 407.88C137.768 408.328 137.608 408.72 137.288 409.056C136.968 409.376 136.584 409.536 136.136 409.536ZM131.984 409.512C131.52 409.512 131.12 409.352 130.784 409.032C130.464 408.696 130.304 408.304 130.304 407.856C130.304 407.392 130.464 406.992 130.784 406.656C131.12 406.32 131.52 406.152 131.984 406.152C132.432 406.152 132.816 406.32 133.136 406.656C133.456 406.992 133.616 407.392 133.616 407.856C133.616 408.304 133.456 408.696 133.136 409.032C132.816 409.352 132.432 409.512 131.984 409.512ZM154.194 420.12C152.706 420.12 151.554 419.968 150.738 419.664C149.938 419.36 149.378 418.888 149.058 418.248C148.738 417.592 148.554 416.768 148.506 415.776L148.002 402.432H151.362L151.866 414.168C151.898 414.904 151.978 415.456 152.106 415.824C152.234 416.192 152.474 416.44 152.826 416.568C153.194 416.696 153.73 416.76 154.434 416.76C155.042 416.76 155.474 416.92 155.73 417.24C156.002 417.544 156.138 417.928 156.138 418.392C156.138 418.888 155.97 419.304 155.634 419.64C155.298 419.96 154.818 420.12 154.194 420.12ZM154.227 420.12L154.467 416.76C154.995 416.76 155.427 416.72 155.763 416.64C156.099 416.544 156.371 416.344 156.579 416.04C156.803 415.72 156.995 415.248 157.155 414.624C157.331 413.984 157.523 413.12 157.731 412.032L160.851 412.608C160.787 412.96 160.699 413.4 160.587 413.928C160.491 414.456 160.443 414.912 160.443 415.296C160.443 415.6 160.499 415.864 160.611 416.088C160.739 416.296 160.947 416.464 161.235 416.592C161.539 416.704 161.955 416.76 162.483 416.76C162.899 416.76 163.251 416.72 163.539 416.64C163.843 416.544 164.099 416.344 164.307 416.04C164.531 415.72 164.723 415.232 164.883 414.576C165.059 413.904 165.227 413 165.387 411.864L168.555 412.368C168.491 412.736 168.427 413.128 168.363 413.544C168.299 413.96 168.243 414.344 168.195 414.696C168.147 415.048 168.123 415.336 168.123 415.56C168.123 415.768 168.179 415.968 168.291 416.16C168.419 416.336 168.643 416.48 168.963 416.592C169.299 416.704 169.763 416.76 170.355 416.76C171.075 416.76 171.603 416.608 171.939 416.304C172.291 415.984 172.467 415.504 172.467 414.864C172.467 414.496 172.459 414.104 172.443 413.688C172.427 413.256 172.395 412.776 172.347 412.248C172.315 411.704 172.251 411.088 172.155 410.4L175.251 410.16C175.363 411.536 175.491 412.656 175.635 413.52C175.779 414.384 175.971 415.056 176.211 415.536C176.467 416 176.803 416.32 177.219 416.496C177.651 416.672 178.211 416.76 178.899 416.76C179.507 416.76 179.939 416.92 180.195 417.24C180.467 417.544 180.603 417.928 180.603 418.392C180.603 418.888 180.435 419.304 180.099 419.64C179.779 419.96 179.299 420.12 178.659 420.12C178.227 420.12 177.779 420.08 177.315 420C176.851 419.936 176.403 419.8 175.971 419.592C175.539 419.368 175.155 419.048 174.819 418.632C174.483 418.216 174.219 417.664 174.027 416.976L174.459 417.12C174.235 417.92 173.931 418.536 173.547 418.968C173.163 419.4 172.691 419.704 172.131 419.88C171.571 420.04 170.899 420.12 170.115 420.12C169.395 420.12 168.755 420.024 168.195 419.832C167.635 419.64 167.187 419.328 166.851 418.896C166.531 418.448 166.363 417.848 166.347 417.096H167.163C166.843 417.992 166.475 418.656 166.059 419.088C165.643 419.52 165.139 419.8 164.547 419.928C163.955 420.056 163.211 420.12 162.315 420.12C161.771 420.12 161.235 420.064 160.707 419.952C160.179 419.824 159.707 419.544 159.291 419.112C158.875 418.664 158.571 417.96 158.379 417L159.675 416.952C159.339 417.896 158.899 418.592 158.355 419.04C157.827 419.488 157.219 419.784 156.531 419.928C155.843 420.056 155.075 420.12 154.227 420.12ZM178.672 420.12L178.912 416.76C179.664 416.76 180.192 416.688 180.496 416.544C180.816 416.384 181.008 416.096 181.072 415.68C181.136 415.248 181.152 414.624 181.12 413.808L180.736 402.432H184.144L184.552 413.784C184.584 414.584 184.68 415.2 184.84 415.632C185 416.064 185.264 416.36 185.632 416.52C186.016 416.68 186.528 416.76 187.168 416.76C187.776 416.76 188.208 416.92 188.464 417.24C188.72 417.544 188.848 417.928 188.848 418.392C188.848 418.888 188.68 419.304 188.344 419.64C188.008 419.96 187.536 420.12 186.928 420.12C186.224 420.12 185.568 420.04 184.96 419.88C184.352 419.72 183.848 419.416 183.448 418.968C183.048 418.52 182.784 417.872 182.656 417.024L183.712 417.048C183.44 417.88 183.088 418.52 182.656 418.968C182.224 419.4 181.68 419.704 181.024 419.88C180.384 420.04 179.6 420.12 178.672 420.12ZM202.618 420.12C201.882 420.12 201.194 420.064 200.554 419.952C199.93 419.84 199.354 419.648 198.826 419.376C198.298 419.088 197.826 418.696 197.41 418.2C197.01 417.704 196.674 417.08 196.402 416.328L198.298 414.816C198.586 415.328 198.938 415.728 199.354 416.016C199.77 416.288 200.266 416.48 200.842 416.592C201.418 416.704 202.09 416.76 202.858 416.76C203.466 416.76 203.898 416.92 204.154 417.24C204.41 417.544 204.538 417.928 204.538 418.392C204.538 418.888 204.37 419.304 204.034 419.64C203.714 419.96 203.242 420.12 202.618 420.12ZM186.922 420.12L187.162 416.76C188.026 416.76 188.882 416.712 189.73 416.616C190.578 416.52 191.402 416.376 192.202 416.184C193.002 415.992 193.762 415.744 194.482 415.44C195.218 415.136 195.906 414.768 196.546 414.336C196.066 414.048 195.546 413.8 194.986 413.592C194.426 413.384 193.826 413.232 193.186 413.136C192.562 413.024 191.898 412.968 191.194 412.968C190.938 412.968 190.666 412.976 190.378 412.992C190.106 413.008 189.826 413.04 189.538 413.088C189.25 413.12 188.962 413.168 188.674 413.232L188.194 409.944C188.658 409.816 189.146 409.728 189.658 409.68C190.186 409.616 190.65 409.584 191.05 409.584C191.914 409.584 192.706 409.68 193.426 409.872C194.162 410.064 194.834 410.304 195.442 410.592C196.066 410.88 196.642 411.168 197.17 411.456C197.714 411.744 198.226 411.984 198.706 412.176C199.202 412.368 199.682 412.464 200.146 412.464H201.034L201.418 415.656C200.73 415.688 200.082 415.824 199.474 416.064C198.882 416.288 198.29 416.576 197.698 416.928C197.122 417.264 196.498 417.616 195.826 417.984C195.17 418.352 194.426 418.696 193.594 419.016C192.762 419.336 191.802 419.6 190.714 419.808C189.626 420.016 188.362 420.12 186.922 420.12ZM193.714 425.52C193.25 425.52 192.85 425.36 192.514 425.04C192.194 424.72 192.034 424.328 192.034 423.864C192.034 423.4 192.194 422.992 192.514 422.64C192.85 422.304 193.25 422.136 193.714 422.136C194.178 422.136 194.57 422.304 194.89 422.64C195.226 422.992 195.394 423.4 195.394 423.864C195.394 424.328 195.226 424.72 194.89 425.04C194.57 425.36 194.178 425.52 193.714 425.52ZM202.625 420.12L202.865 416.76C203.601 416.76 204.129 416.688 204.449 416.544C204.769 416.384 204.961 416.096 205.025 415.68C205.089 415.248 205.105 414.624 205.073 413.808L204.641 402.432H208.025L208.505 414.048C208.537 414.976 208.497 415.816 208.385 416.568C208.289 417.304 208.041 417.936 207.641 418.464C207.257 418.992 206.657 419.4 205.841 419.688C205.041 419.976 203.969 420.12 202.625 420.12ZM211.67 420L211.166 402.432H214.526L215.03 420H211.67Z" fill="white"/>
<path d="M112.2 479.504L112.824 476.144C114.376 476.144 115.728 476.104 116.88 476.024C118.032 475.928 118.984 475.792 119.736 475.616C120.504 475.424 121.072 475.176 121.44 474.872C121.824 474.568 122.016 474.2 122.016 473.768C122.016 473.192 121.92 472.504 121.728 471.704C121.536 470.888 121.288 470.064 120.984 469.232L124.128 468.32C124.336 468.864 124.536 469.464 124.728 470.12C124.92 470.76 125.072 471.408 125.184 472.064C125.312 472.704 125.376 473.304 125.376 473.864C125.376 474.856 125.16 475.712 124.728 476.432C124.296 477.136 123.576 477.72 122.568 478.184C121.576 478.632 120.232 478.96 118.536 479.168C116.84 479.392 114.728 479.504 112.2 479.504ZM112.176 479.504C110.448 479.504 108.984 479.368 107.784 479.096C106.6 478.84 105.632 478.472 104.88 477.992C104.144 477.496 103.608 476.92 103.272 476.264C102.936 475.608 102.768 474.888 102.768 474.104C102.768 473.592 102.808 473.08 102.888 472.568C102.984 472.04 103.096 471.528 103.224 471.032C103.368 470.536 103.496 470.088 103.608 469.688L106.608 470.384C106.544 470.672 106.472 470.984 106.392 471.32C106.312 471.656 106.248 471.984 106.2 472.304C106.152 472.608 106.128 472.888 106.128 473.144C106.128 473.736 106.336 474.264 106.752 474.728C107.184 475.176 107.888 475.528 108.864 475.784C109.84 476.024 111.152 476.144 112.8 476.144L113.28 478.736L112.176 479.504ZM116.136 468.536C115.672 468.536 115.272 468.376 114.936 468.056C114.616 467.72 114.456 467.328 114.456 466.88C114.456 466.416 114.616 466.016 114.936 465.68C115.272 465.344 115.672 465.176 116.136 465.176C116.584 465.176 116.968 465.344 117.288 465.68C117.608 466.016 117.768 466.416 117.768 466.88C117.768 467.328 117.608 467.72 117.288 468.056C116.968 468.376 116.584 468.536 116.136 468.536ZM111.984 468.512C111.52 468.512 111.12 468.352 110.784 468.032C110.464 467.696 110.304 467.304 110.304 466.856C110.304 466.392 110.464 465.992 110.784 465.656C111.12 465.32 111.52 465.152 111.984 465.152C112.432 465.152 112.816 465.32 113.136 465.656C113.456 465.992 113.616 466.392 113.616 466.856C113.616 467.304 113.456 467.696 113.136 468.032C112.816 468.352 112.432 468.512 111.984 468.512ZM134.194 479.12C132.706 479.12 131.554 478.968 130.738 478.664C129.938 478.36 129.378 477.888 129.058 477.248C128.738 476.592 128.554 475.768 128.506 474.776L128.002 461.432H131.362L131.866 473.168C131.898 473.904 131.978 474.456 132.106 474.824C132.234 475.192 132.474 475.44 132.826 475.568C133.194 475.696 133.73 475.76 134.434 475.76C135.042 475.76 135.474 475.92 135.73 476.24C136.002 476.544 136.138 476.928 136.138 477.392C136.138 477.888 135.97 478.304 135.634 478.64C135.298 478.96 134.818 479.12 134.194 479.12ZM134.227 479.12L134.467 475.76H137.899C138.235 475.76 138.531 475.744 138.787 475.712C139.043 475.664 139.251 475.592 139.411 475.496C139.587 475.4 139.715 475.28 139.795 475.136C139.875 474.992 139.915 474.824 139.915 474.632C139.915 474.44 139.811 474.136 139.603 473.72C139.411 473.288 138.987 472.768 138.331 472.16C137.979 471.84 137.595 471.504 137.179 471.152C136.779 470.784 136.395 470.44 136.027 470.12C135.659 469.784 135.355 469.488 135.115 469.232C134.875 468.976 134.755 468.792 134.755 468.68C134.755 468.44 134.771 468.176 134.803 467.888C134.835 467.6 134.883 467.336 134.947 467.096C135.027 466.856 135.131 466.68 135.259 466.568C135.531 466.312 135.931 466.016 136.459 465.68C137.003 465.328 137.651 464.952 138.403 464.552C139.155 464.136 139.995 463.704 140.923 463.256C141.867 462.792 142.875 462.328 143.947 461.864L145.315 464.792C144.435 465.176 143.603 465.552 142.819 465.92C142.035 466.272 141.299 466.624 140.611 466.976C139.939 467.312 139.315 467.648 138.739 467.984C138.179 468.304 137.683 468.624 137.251 468.944L137.563 467.168C138.923 468.208 140.003 469.144 140.803 469.976C141.619 470.808 142.227 471.552 142.627 472.208C143.027 472.848 143.291 473.424 143.419 473.936C143.547 474.432 143.611 474.872 143.611 475.256C143.611 475.64 143.515 476.056 143.323 476.504C143.147 476.936 142.819 477.352 142.339 477.752C141.875 478.152 141.219 478.48 140.371 478.736C139.523 478.992 138.435 479.12 137.107 479.12H134.227ZM147.045 479L146.541 461.432H149.901L150.405 479H147.045ZM151.462 484.544L150.238 481.568C151.086 481.28 151.862 480.944 152.566 480.56C153.286 480.176 153.91 479.752 154.438 479.288C154.966 478.824 155.374 478.32 155.662 477.776C155.95 477.216 156.094 476.616 156.094 475.976C156.094 475.304 155.942 474.568 155.638 473.768C155.334 472.968 154.966 472.152 154.534 471.32L157.678 469.808C157.966 470.304 158.214 470.84 158.422 471.416C158.646 471.976 158.83 472.48 158.974 472.928C159.118 473.376 159.214 473.68 159.262 473.84C159.486 474.608 159.79 475.12 160.174 475.376C160.574 475.632 161.214 475.76 162.094 475.76C162.702 475.76 163.134 475.92 163.39 476.24C163.662 476.544 163.798 476.928 163.798 477.392C163.798 477.888 163.63 478.304 163.294 478.64C162.958 478.96 162.478 479.12 161.854 479.12C161.198 479.12 160.622 479.024 160.126 478.832C159.63 478.64 159.23 478.36 158.926 477.992C158.638 477.624 158.454 477.192 158.374 476.696L159.262 477.2C159.166 478.048 158.886 478.848 158.422 479.6C157.974 480.368 157.39 481.072 156.67 481.712C155.95 482.352 155.142 482.912 154.246 483.392C153.35 483.872 152.422 484.256 151.462 484.544ZM161.883 479.12L162.123 475.76C162.699 475.76 163.195 475.704 163.611 475.592C164.027 475.48 164.379 475.256 164.667 474.92C164.955 474.568 165.195 474.056 165.387 473.384C165.595 472.712 165.779 471.816 165.939 470.696L169.083 471.224C169.051 471.464 169.003 471.744 168.939 472.064C168.891 472.384 168.843 472.712 168.795 473.048C168.763 473.368 168.747 473.672 168.747 473.96C168.747 474.248 168.803 474.504 168.915 474.728C169.027 474.952 169.203 475.144 169.443 475.304C169.699 475.448 170.027 475.56 170.427 475.64C170.843 475.72 171.347 475.76 171.939 475.76C172.547 475.76 172.979 475.92 173.235 476.24C173.491 476.544 173.619 476.928 173.619 477.392C173.619 477.888 173.451 478.304 173.115 478.64C172.795 478.96 172.323 479.12 171.699 479.12C170.979 479.12 170.323 479.064 169.731 478.952C169.155 478.84 168.651 478.656 168.219 478.4C167.803 478.128 167.459 477.776 167.187 477.344C166.931 476.896 166.771 476.352 166.707 475.712H167.859C167.571 476.48 167.203 477.096 166.755 477.56C166.323 478.008 165.835 478.344 165.291 478.568C164.747 478.792 164.179 478.936 163.587 479C163.011 479.08 162.443 479.12 161.883 479.12ZM169.587 468.536C169.123 468.536 168.723 468.376 168.387 468.056C168.067 467.72 167.907 467.328 167.907 466.88C167.907 466.416 168.067 466.016 168.387 465.68C168.723 465.344 169.123 465.176 169.587 465.176C170.035 465.176 170.419 465.344 170.739 465.68C171.059 466.016 171.219 466.416 171.219 466.88C171.219 467.328 171.059 467.72 170.739 468.056C170.419 468.376 170.035 468.536 169.587 468.536ZM165.435 468.512C164.971 468.512 164.571 468.352 164.235 468.032C163.915 467.696 163.755 467.304 163.755 466.856C163.755 466.392 163.915 465.992 164.235 465.656C164.571 465.32 164.971 465.152 165.435 465.152C165.883 465.152 166.267 465.32 166.587 465.656C166.907 465.992 167.067 466.392 167.067 466.856C167.067 467.304 166.907 467.696 166.587 468.032C166.267 468.352 165.883 468.512 165.435 468.512ZM171.703 479.12L171.943 475.76C172.471 475.76 172.903 475.72 173.239 475.64C173.575 475.544 173.847 475.344 174.055 475.04C174.279 474.72 174.471 474.248 174.631 473.624C174.807 472.984 174.999 472.12 175.207 471.032L178.327 471.608C178.279 471.848 178.223 472.128 178.159 472.448C178.095 472.768 178.039 473.096 177.991 473.432C177.943 473.752 177.919 474.04 177.919 474.296C177.919 474.744 178.063 475.104 178.351 475.376C178.639 475.632 179.183 475.76 179.983 475.76C180.383 475.76 180.727 475.72 181.015 475.64C181.319 475.544 181.575 475.344 181.783 475.04C182.007 474.72 182.199 474.232 182.359 473.576C182.535 472.904 182.703 472 182.863 470.864L186.031 471.368C185.967 471.736 185.903 472.128 185.839 472.544C185.775 472.96 185.719 473.344 185.671 473.696C185.623 474.048 185.599 474.336 185.599 474.56C185.599 474.768 185.655 474.968 185.767 475.16C185.895 475.336 186.119 475.48 186.439 475.592C186.775 475.704 187.247 475.76 187.855 475.76C188.287 475.76 188.655 475.704 188.959 475.592C189.279 475.48 189.519 475.296 189.679 475.04C189.855 474.784 189.943 474.448 189.943 474.032C189.943 473.44 189.807 472.664 189.535 471.704C189.263 470.744 188.943 469.736 188.575 468.68L191.959 467.672C192.215 468.36 192.439 469.096 192.631 469.88C192.839 470.648 192.999 471.4 193.111 472.136C193.239 472.856 193.303 473.488 193.303 474.032C193.303 474.848 193.175 475.576 192.919 476.216C192.663 476.84 192.303 477.368 191.839 477.8C191.375 478.232 190.823 478.56 190.183 478.784C189.543 479.008 188.839 479.12 188.071 479.12C187.143 479.12 186.383 479.032 185.791 478.856C185.199 478.664 184.743 478.352 184.423 477.92C184.119 477.472 183.919 476.864 183.823 476.096H184.639C184.303 477.04 183.927 477.728 183.511 478.16C183.095 478.576 182.599 478.84 182.023 478.952C181.463 479.064 180.759 479.12 179.911 479.12C179.383 479.12 178.839 479.064 178.279 478.952C177.735 478.824 177.247 478.536 176.815 478.088C176.383 477.64 176.063 476.944 175.855 476L177.151 475.952C176.815 476.896 176.375 477.592 175.831 478.04C175.303 478.488 174.695 478.784 174.007 478.928C173.319 479.056 172.551 479.12 171.703 479.12ZM184.255 464.264C183.855 464.264 183.503 464.112 183.199 463.808C182.911 463.504 182.767 463.144 182.767 462.728C182.767 462.312 182.911 461.96 183.199 461.672C183.503 461.384 183.855 461.24 184.255 461.24C184.671 461.24 185.023 461.384 185.311 461.672C185.599 461.96 185.743 462.312 185.743 462.728C185.743 463.144 185.599 463.504 185.311 463.808C185.023 464.112 184.671 464.264 184.255 464.264ZM182.335 467.432C181.935 467.432 181.583 467.28 181.279 466.976C180.991 466.672 180.847 466.312 180.847 465.896C180.847 465.48 180.991 465.128 181.279 464.84C181.583 464.552 181.935 464.408 182.335 464.408C182.751 464.408 183.103 464.552 183.391 464.84C183.679 465.128 183.823 465.48 183.823 465.896C183.823 466.312 183.679 466.672 183.391 466.976C183.103 467.28 182.751 467.432 182.335 467.432ZM186.055 467.432C185.655 467.432 185.303 467.28 184.999 466.976C184.711 466.672 184.567 466.312 184.567 465.896C184.567 465.48 184.711 465.128 184.999 464.84C185.303 464.552 185.655 464.408 186.055 464.408C186.471 464.408 186.823 464.552 187.111 464.84C187.399 465.128 187.543 465.48 187.543 465.896C187.543 466.312 187.399 466.672 187.111 466.976C186.823 467.28 186.471 467.432 186.055 467.432ZM203.964 466.136C203.964 465.608 203.932 465.08 203.868 464.552C203.82 464.024 203.756 463.528 203.676 463.064C203.596 462.584 203.524 462.168 203.46 461.816L206.82 461.336C206.884 461.656 206.948 462.08 207.012 462.608C207.076 463.136 207.132 463.696 207.18 464.288C207.228 464.864 207.252 465.416 207.252 465.944C207.252 466.776 207.18 467.56 207.036 468.296C206.892 469.032 206.676 469.728 206.388 470.384C206.1 471.024 205.74 471.64 205.308 472.232L204.876 472.808C204.46 473.32 203.972 473.824 203.412 474.32C202.868 474.816 202.268 475.296 201.612 475.76H203.172C203.716 475.76 204.132 475.728 204.42 475.664C204.708 475.6 204.9 475.512 204.996 475.4C205.108 475.272 205.164 475.128 205.164 474.968C205.164 474.68 204.916 474.256 204.42 473.696C203.924 473.12 203.236 472.464 202.356 471.728C201.476 470.976 200.444 470.184 199.26 469.352C198.092 468.504 196.828 467.656 195.468 466.808L197.22 464.24C199.108 465.408 200.7 466.48 201.996 467.456C203.308 468.432 204.38 469.32 205.212 470.12C206.06 470.92 206.716 471.648 207.18 472.304C207.644 472.96 207.964 473.552 208.14 474.08C208.316 474.592 208.404 475.056 208.404 475.472C208.404 475.936 208.332 476.384 208.188 476.816C208.044 477.232 207.812 477.608 207.492 477.944C207.172 478.264 206.756 478.52 206.244 478.712C205.732 478.904 205.1 479 204.348 479H197.292V475.784C198.94 474.6 200.244 473.48 201.204 472.424C202.18 471.368 202.884 470.328 203.316 469.304C203.748 468.28 203.964 467.224 203.964 466.136ZM211.592 479L211.088 461.432H214.448L214.952 479H211.592Z" fill="white"/>
<path d="M152.2 539.504L152.824 536.144C154.376 536.144 155.728 536.104 156.88 536.024C158.032 535.928 158.984 535.792 159.736 535.616C160.504 535.424 161.072 535.176 161.44 534.872C161.824 534.568 162.016 534.2 162.016 533.768C162.016 533.192 161.92 532.504 161.728 531.704C161.536 530.888 161.288 530.064 160.984 529.232L164.128 528.32C164.336 528.864 164.536 529.464 164.728 530.12C164.92 530.76 165.072 531.408 165.184 532.064C165.312 532.704 165.376 533.304 165.376 533.864C165.376 534.856 165.16 535.712 164.728 536.432C164.296 537.136 163.576 537.72 162.568 538.184C161.576 538.632 160.232 538.96 158.536 539.168C156.84 539.392 154.728 539.504 152.2 539.504ZM152.176 539.504C150.448 539.504 148.984 539.368 147.784 539.096C146.6 538.84 145.632 538.472 144.88 537.992C144.144 537.496 143.608 536.92 143.272 536.264C142.936 535.608 142.768 534.888 142.768 534.104C142.768 533.592 142.808 533.08 142.888 532.568C142.984 532.04 143.096 531.528 143.224 531.032C143.368 530.536 143.496 530.088 143.608 529.688L146.608 530.384C146.544 530.672 146.472 530.984 146.392 531.32C146.312 531.656 146.248 531.984 146.2 532.304C146.152 532.608 146.128 532.888 146.128 533.144C146.128 533.736 146.336 534.264 146.752 534.728C147.184 535.176 147.888 535.528 148.864 535.784C149.84 536.024 151.152 536.144 152.8 536.144L153.28 538.736L152.176 539.504ZM156.136 528.536C155.672 528.536 155.272 528.376 154.936 528.056C154.616 527.72 154.456 527.328 154.456 526.88C154.456 526.416 154.616 526.016 154.936 525.68C155.272 525.344 155.672 525.176 156.136 525.176C156.584 525.176 156.968 525.344 157.288 525.68C157.608 526.016 157.768 526.416 157.768 526.88C157.768 527.328 157.608 527.72 157.288 528.056C156.968 528.376 156.584 528.536 156.136 528.536ZM151.984 528.512C151.52 528.512 151.12 528.352 150.784 528.032C150.464 527.696 150.304 527.304 150.304 526.856C150.304 526.392 150.464 525.992 150.784 525.656C151.12 525.32 151.52 525.152 151.984 525.152C152.432 525.152 152.816 525.32 153.136 525.656C153.456 525.992 153.616 526.392 153.616 526.856C153.616 527.304 153.456 527.696 153.136 528.032C152.816 528.352 152.432 528.512 151.984 528.512ZM174.194 539.12C172.706 539.12 171.554 538.968 170.738 538.664C169.938 538.36 169.378 537.888 169.058 537.248C168.738 536.592 168.554 535.768 168.506 534.776L168.002 521.432H171.362L171.866 533.168C171.898 533.904 171.978 534.456 172.106 534.824C172.234 535.192 172.474 535.44 172.826 535.568C173.194 535.696 173.73 535.76 174.434 535.76C175.042 535.76 175.474 535.92 175.73 536.24C176.002 536.544 176.138 536.928 176.138 537.392C176.138 537.888 175.97 538.304 175.634 538.64C175.298 538.96 174.818 539.12 174.194 539.12ZM174.227 539.12L174.467 535.784C175.795 535.784 176.859 535.776 177.659 535.76C178.475 535.744 179.107 535.712 179.555 535.664C180.019 535.6 180.363 535.528 180.587 535.448C180.811 535.352 181.003 535.248 181.163 535.136C181.355 534.992 181.515 534.8 181.643 534.56C181.787 534.304 181.899 533.968 181.979 533.552C182.059 533.136 182.099 532.616 182.099 531.992C182.099 531.208 182.027 530.552 181.883 530.024C181.755 529.48 181.563 529.072 181.307 528.8C181.067 528.528 180.771 528.392 180.419 528.392C180.163 528.392 179.923 528.48 179.699 528.656C179.475 528.816 179.291 529.04 179.147 529.328C179.003 529.616 178.931 529.944 178.931 530.312C178.931 530.52 178.987 530.704 179.099 530.864C179.211 531.024 179.387 531.144 179.627 531.224C179.867 531.304 180.171 531.344 180.539 531.344C180.891 531.344 181.259 531.304 181.643 531.224C182.043 531.128 182.411 531 182.747 530.84L182.843 533.696C182.587 533.872 182.291 534.032 181.955 534.176C181.619 534.32 181.259 534.432 180.875 534.512C180.507 534.576 180.131 534.608 179.747 534.608C178.899 534.608 178.163 534.496 177.539 534.272C176.931 534.032 176.459 533.648 176.123 533.12C175.787 532.592 175.619 531.872 175.619 530.96C175.619 530.256 175.739 529.56 175.979 528.872C176.219 528.168 176.563 527.536 177.011 526.976C177.459 526.4 177.987 525.944 178.595 525.608C179.203 525.256 179.875 525.08 180.611 525.08C181.699 525.08 182.595 525.4 183.299 526.04C184.019 526.664 184.547 527.512 184.883 528.584C185.235 529.64 185.411 530.816 185.411 532.112C185.411 533.248 185.243 534.24 184.907 535.088C184.571 535.92 184.171 536.576 183.707 537.056C183.323 537.456 182.883 537.792 182.387 538.064C181.891 538.336 181.283 538.552 180.563 538.712C179.859 538.856 178.987 538.96 177.947 539.024C176.923 539.088 175.683 539.12 174.227 539.12ZM182.651 522.896C182.187 522.896 181.787 522.736 181.451 522.416C181.131 522.08 180.971 521.688 180.971 521.24C180.971 520.776 181.131 520.376 181.451 520.04C181.787 519.704 182.187 519.536 182.651 519.536C183.099 519.536 183.483 519.704 183.803 520.04C184.123 520.376 184.283 520.776 184.283 521.24C184.283 521.688 184.123 522.08 183.803 522.416C183.483 522.736 183.099 522.896 182.651 522.896ZM178.499 522.872C178.035 522.872 177.635 522.712 177.299 522.392C176.979 522.056 176.819 521.664 176.819 521.216C176.819 520.752 176.979 520.352 177.299 520.016C177.635 519.68 178.035 519.512 178.499 519.512C178.947 519.512 179.331 519.68 179.651 520.016C179.971 520.352 180.131 520.752 180.131 521.216C180.131 521.664 179.971 522.056 179.651 522.392C179.331 522.712 178.947 522.872 178.499 522.872ZM193.952 539.12C192.464 539.12 191.312 538.968 190.496 538.664C189.696 538.36 189.136 537.888 188.816 537.248C188.496 536.592 188.312 535.768 188.264 534.776L187.76 521.432H191.12L191.624 533.168C191.656 533.904 191.736 534.456 191.864 534.824C191.992 535.192 192.232 535.44 192.584 535.568C192.952 535.696 193.488 535.76 194.192 535.76C194.8 535.76 195.232 535.92 195.488 536.24C195.76 536.544 195.896 536.928 195.896 537.392C195.896 537.888 195.728 538.304 195.392 538.64C195.056 538.96 194.576 539.12 193.952 539.12ZM193.984 539.12L194.224 535.76C194.832 535.76 195.312 535.704 195.664 535.592C196.032 535.48 196.32 535.256 196.528 534.92C196.752 534.568 196.936 534.056 197.08 533.384C197.24 532.712 197.4 531.816 197.56 530.696L200.704 531.224C200.672 531.464 200.624 531.744 200.56 532.064C200.512 532.384 200.464 532.712 200.416 533.048C200.384 533.368 200.368 533.672 200.368 533.96C200.368 534.344 200.448 534.672 200.608 534.944C200.784 535.2 201.088 535.4 201.52 535.544C201.968 535.688 202.608 535.76 203.44 535.76C204.048 535.76 204.48 535.92 204.736 536.24C204.992 536.544 205.12 536.928 205.12 537.392C205.12 537.888 204.952 538.304 204.616 538.64C204.296 538.96 203.824 539.12 203.2 539.12C202.096 539.12 201.2 539.016 200.512 538.808C199.824 538.6 199.312 538.248 198.976 537.752C198.64 537.256 198.424 536.576 198.328 535.712H199.48C199.192 536.48 198.856 537.096 198.472 537.56C198.088 538.008 197.656 538.344 197.176 538.568C196.696 538.792 196.184 538.936 195.64 539C195.112 539.08 194.56 539.12 193.984 539.12ZM198.256 544.64C197.792 544.64 197.392 544.48 197.056 544.16C196.736 543.84 196.576 543.448 196.576 542.984C196.576 542.52 196.736 542.112 197.056 541.76C197.392 541.424 197.792 541.256 198.256 541.256C198.72 541.256 199.112 541.424 199.432 541.76C199.768 542.112 199.936 542.52 199.936 542.984C199.936 543.448 199.768 543.84 199.432 544.16C199.112 544.48 198.72 544.64 198.256 544.64ZM203.195 539.12L203.435 535.76C204.171 535.76 204.699 535.688 205.019 535.544C205.339 535.384 205.531 535.096 205.595 534.68C205.659 534.248 205.675 533.624 205.643 532.808L205.211 521.432H208.595L209.075 533.048C209.107 533.976 209.067 534.816 208.955 535.568C208.859 536.304 208.611 536.936 208.211 537.464C207.827 537.992 207.227 538.4 206.411 538.688C205.611 538.976 204.539 539.12 203.195 539.12ZM212.24 539L211.736 521.432H215.096L215.6 539H212.24Z" fill="white"/>
</svg>
