<svg width="32" height="32" viewBox="0 0 32 32" fill="none" xmlns="http://www.w3.org/2000/svg">
<g id="Frame" clip-path="url(#clip0_1016_257)">
<g id="Group">
<path id="Vector" d="M9.75 23.1251C9.405 23.1251 9.125 23.4051 9.125 23.7501C9.125 24.0951 9.405 24.3751 9.75 24.3751C10.095 24.3751 10.375 24.0951 10.375 23.7501C10.375 23.4051 10.095 23.1251 9.75 23.1251Z" fill="white"/>
<path id="Vector_2" d="M28.134 11.8751L31.8171 8.192C31.8932 8.11583 31.9484 8.02126 31.9773 7.91748C32.0061 7.8137 32.0077 7.70422 31.9818 7.59967C31.9558 7.49512 31.9033 7.39904 31.8293 7.32076C31.7553 7.24247 31.6624 7.18464 31.5595 7.15287L22.5907 4.38475C21.7822 1.78593 19.3792 0.00012207 16.625 0.00012207C14.0648 0.00012207 11.775 1.56043 10.8273 3.91418L0.43895 7.15343C0.336258 7.18546 0.243568 7.24344 0.169848 7.32178C0.0961291 7.40011 0.043876 7.49615 0.0181447 7.6006C-0.00758668 7.70504 -0.00592519 7.81436 0.0229684 7.91798C0.0518619 8.02159 0.107009 8.116 0.183075 8.19206L3.96301 11.972L1.57901 15.9454C1.53087 16.0257 1.50136 16.1157 1.49267 16.2089C1.48398 16.3021 1.49633 16.3961 1.5288 16.4838C1.56128 16.5716 1.61304 16.651 1.68029 16.7161C1.74754 16.7812 1.82854 16.8303 1.91733 16.8599L5.37501 18.0124V27.6251C5.37502 27.7523 5.41385 27.8765 5.48632 27.981C5.55879 28.0856 5.66145 28.1656 5.78058 28.2102C7.89476 29.003 15.7501 31.9491 15.7923 31.9641C15.9213 32.0098 16.0619 32.0118 16.1921 31.9696C16.194 31.969 16.1958 31.9686 16.1976 31.968L27.4476 28.218C27.5721 28.1765 27.6803 28.0969 27.757 27.9905C27.8337 27.8841 27.875 27.7562 27.875 27.6251V17.7551L31.5624 16.5963C31.6649 16.5641 31.7574 16.506 31.8309 16.4276C31.9044 16.3493 31.9565 16.2533 31.9821 16.1489C32.0077 16.0446 32.0059 15.9354 31.977 15.8319C31.9481 15.7284 31.893 15.6341 31.817 15.5581L28.134 11.8751ZM22.875 6.25012C22.875 6.09131 22.8683 5.93287 22.8564 5.77493L30.1998 8.0415L27.0812 11.16L21.9857 9.46168C22.5627 8.49725 22.875 7.38437 22.875 6.25012ZM11.8955 4.62337C12.5893 2.60575 14.49 1.25012 16.625 1.25012C18.9251 1.25012 20.92 2.80587 21.4761 5.03337C21.5752 5.43137 21.6252 5.83998 21.625 6.25012C21.625 7.411 21.2398 8.49906 20.5108 9.39712C19.556 10.5747 18.1396 11.2501 16.625 11.2501C14.9878 11.2501 13.4521 10.4465 12.5167 9.09987C11.9334 8.262 11.625 7.2765 11.625 6.25012C11.625 5.69193 11.716 5.14462 11.8955 4.62337ZM1.79783 8.03906L10.4416 5.34381C10.3976 5.6439 10.3754 5.94677 10.375 6.25006C10.375 7.25637 10.6134 8.23106 11.0678 9.1105L4.91883 11.16L1.79783 8.03906ZM3.05176 15.9204L5.02801 12.6266L15.0632 15.9716L13.087 19.2655L3.05176 15.9204ZM15.375 30.4732L6.62501 27.192V18.4291C13.5094 20.7117 13.1732 20.6421 13.3649 20.6421C13.5798 20.6421 13.7855 20.5309 13.901 20.3386L15.375 17.8816V30.4732ZM16 14.9663L6.72651 11.8752L11.7761 10.1921C12.958 11.645 14.7372 12.5001 16.625 12.5001C18.3714 12.5001 20.0127 11.7814 21.1933 10.5152L25.2735 11.8751L16 14.9663ZM26.625 27.1746L16.625 30.5079V17.4067L18.8407 20.1761C18.9194 20.2744 19.026 20.3467 19.1466 20.3835C19.2671 20.4202 19.3959 20.4196 19.5161 20.3819L26.625 18.1479V27.1746ZM19.5495 19.0612L17.048 15.9346L27.0812 12.5902L30.204 15.7129L19.5495 19.0612Z" fill="white"/>
<path id="Vector_3" d="M13.7195 24.5123L12.3295 23.9911C12.0063 23.8699 11.6461 24.0336 11.5248 24.3568C11.4036 24.6801 11.5674 25.0403 11.8906 25.1615L13.2806 25.6828C13.6044 25.8041 13.9642 25.6396 14.0852 25.317C14.2064 24.9938 14.0427 24.6335 13.7195 24.5123ZM13.7194 27.1823L9.96943 25.7761C9.64624 25.6549 9.28599 25.8186 9.16474 26.1418C9.04349 26.465 9.2073 26.8253 9.53049 26.9465L13.2805 28.3528C13.3506 28.3792 13.4249 28.3927 13.4999 28.3928C13.7529 28.3928 13.9911 28.2379 14.0852 27.987C14.2064 27.6638 14.0427 27.3035 13.7194 27.1823ZM20.192 3.93307C19.9479 3.68895 19.5522 3.68901 19.3081 3.93307L16 7.2412L15.1919 6.43313C14.9479 6.18907 14.5521 6.18907 14.308 6.43313C14.0639 6.6772 14.0639 7.07295 14.308 7.31707L15.5581 8.56701C15.8021 8.81107 16.1979 8.81107 16.442 8.56701L20.192 4.81701C20.4361 4.57295 20.4361 4.1772 20.192 3.93307Z" fill="white"/>
</g>
</g>
<defs>
<clipPath id="clip0_1016_257">
<rect width="32" height="32" fill="white"/>
</clipPath>
</defs>
</svg>
