<svg width="32" height="32" viewBox="0 0 32 32" fill="none" xmlns="http://www.w3.org/2000/svg">
<g id="Frame">
<g id="Group">
<path id="Vector" d="M31 24.5H29V9.25004C28.9995 8.78606 28.8149 8.34124 28.4869 8.01316C28.1588 7.68509 27.714 7.50055 27.25 7.50004H24C23.9201 7.50004 23.8414 7.51934 23.7706 7.55629C23.104 6.05165 22.0148 4.77292 20.6354 3.87535C19.256 2.97779 17.6457 2.5 16 2.5C14.3543 2.5 12.744 2.97779 11.3646 3.87535C9.98518 4.77292 8.89603 6.05165 8.22937 7.55629C8.15856 7.51934 8.07987 7.50004 8 7.50004H4.75C4.28603 7.50055 3.84121 7.68509 3.51313 8.01316C3.18505 8.34124 3.00051 8.78606 3 9.25004V24.5H1C0.867392 24.5 0.740215 24.5527 0.646447 24.6465C0.552678 24.7402 0.5 24.8674 0.5 25V27.75C0.500513 28.214 0.685052 28.6588 1.01313 28.9869C1.34121 29.315 1.78603 29.4995 2.25 29.5H29.75C30.214 29.4995 30.6588 29.315 30.9869 28.9869C31.3149 28.6588 31.4995 28.214 31.5 27.75V25C31.5 24.8674 31.4473 24.7402 31.3536 24.6465C31.2598 24.5527 31.1326 24.5 31 24.5ZM16 3.50004C17.4834 3.50004 18.9334 3.9399 20.1668 4.76401C21.4001 5.58812 22.3614 6.75946 22.9291 8.12991C23.4968 9.50036 23.6453 11.0084 23.3559 12.4632C23.0665 13.9181 22.3522 15.2544 21.3033 16.3033C20.2544 17.3522 18.918 18.0665 17.4632 18.3559C16.0083 18.6453 14.5003 18.4968 13.1299 17.9291C11.7594 17.3615 10.5881 16.4002 9.76398 15.1668C8.93987 13.9334 8.5 12.4834 8.5 11C8.50222 9.01159 9.2931 7.10523 10.6991 5.69918C12.1052 4.29314 14.0116 3.50225 16 3.50004ZM16 19.5C20.6869 19.5 24.5 15.6869 24.5 11C24.4998 10.6658 24.48 10.3319 24.4406 10H26.5V23H5.5V10H7.55937C7.52 10.3319 7.50017 10.6658 7.5 11C7.5 15.6869 11.3131 19.5 16 19.5ZM4 9.25004C4.00017 9.05117 4.07924 8.8605 4.21985 8.71989C4.36047 8.57927 4.55114 8.5002 4.75 8.50004H7.87563C7.82438 8.66441 7.77938 8.83129 7.73812 9.00004H5C4.86739 9.00004 4.74021 9.05271 4.64645 9.14648C4.55268 9.24025 4.5 9.36743 4.5 9.50004V23.5C4.5 23.6326 4.55268 23.7598 4.64645 23.8536C4.74021 23.9474 4.86739 24 5 24H27C27.1326 24 27.2598 23.9474 27.3536 23.8536C27.4473 23.7598 27.5 23.6326 27.5 23.5V9.50004C27.5 9.36743 27.4473 9.24025 27.3536 9.14648C27.2598 9.05271 27.1326 9.00004 27 9.00004H24.2619C24.2206 8.83129 24.1756 8.66441 24.1244 8.50004H27.25C27.4489 8.5002 27.6395 8.57927 27.7801 8.71989C27.9208 8.8605 27.9998 9.05117 28 9.25004V24.5H4V9.25004ZM18.8062 25.5L18.6394 26H13.3606L13.1938 25.5H18.8062ZM30.5 27.75C30.4998 27.9489 30.4208 28.1396 30.2801 28.2802C30.1395 28.4208 29.9489 28.4999 29.75 28.5H2.25C2.05114 28.4999 1.86047 28.4208 1.71985 28.2802C1.57924 28.1396 1.50017 27.9489 1.5 27.75V25.5H12.1394L12.5256 26.6582C12.5588 26.7577 12.6225 26.8443 12.7076 26.9057C12.7928 26.967 12.8951 27 13 27H19C19.1049 27 19.2072 26.967 19.2924 26.9057C19.3775 26.8443 19.4412 26.7577 19.4744 26.6582L19.8606 25.5H30.5V27.75Z" fill="white"/>
<path id="Vector_2" d="M16 17.5C17.2856 17.5 18.5423 17.1188 19.6112 16.4046C20.6801 15.6903 21.5132 14.6752 22.0052 13.4874C22.4972 12.2997 22.6259 10.9928 22.3751 9.73192C22.1243 8.47104 21.5052 7.31285 20.5962 6.40381C19.6872 5.49477 18.529 4.8757 17.2681 4.6249C16.0072 4.37409 14.7003 4.50282 13.5126 4.99479C12.3248 5.48676 11.3097 6.31988 10.5954 7.3888C9.88122 8.45772 9.5 9.71442 9.5 11C9.50195 12.7233 10.1874 14.3755 11.406 15.594C12.6245 16.8126 14.2767 17.4981 16 17.5ZM11.7753 7.48244L12.1109 7.81807C12.1573 7.8645 12.2124 7.90133 12.2731 7.92646C12.3338 7.95159 12.3988 7.96453 12.4645 7.96453C12.5301 7.96453 12.5952 7.95159 12.6558 7.92646C12.7165 7.90133 12.7716 7.8645 12.8181 7.81807C12.8645 7.77163 12.9013 7.71651 12.9265 7.65584C12.9516 7.59517 12.9645 7.53014 12.9645 7.46447C12.9645 7.3988 12.9516 7.33378 12.9265 7.27311C12.9013 7.21244 12.8645 7.15731 12.8181 7.11088L12.4824 6.77532C13.3374 6.0605 14.3901 5.62361 15.5 5.523V6C15.5 6.13261 15.5527 6.25979 15.6464 6.35356C15.7402 6.44732 15.8674 6.5 16 6.5C16.1326 6.5 16.2598 6.44732 16.3536 6.35356C16.4473 6.25979 16.5 6.13261 16.5 6V5.523C17.6099 5.62361 18.6626 6.0605 19.5176 6.77532L19.1819 7.11088C19.0882 7.20466 19.0355 7.33185 19.0355 7.46447C19.0355 7.5971 19.0882 7.72429 19.1819 7.81807C19.2757 7.91184 19.4029 7.96453 19.5355 7.96453C19.6682 7.96453 19.7953 7.91184 19.8891 7.81807L20.2247 7.48244C20.9395 8.33741 21.3764 9.39014 21.4771 10.5H21C20.8674 10.5 20.7402 10.5527 20.6464 10.6464C20.5527 10.7402 20.5 10.8674 20.5 11C20.5 11.1326 20.5527 11.2598 20.6464 11.3536C20.7402 11.4473 20.8674 11.5 21 11.5H21.4771C21.3765 12.6098 20.9397 13.6626 20.225 14.5176L19.8894 14.1819C19.843 14.1355 19.7879 14.0987 19.7272 14.0735C19.6665 14.0484 19.6015 14.0355 19.5358 14.0355C19.4702 14.0355 19.4052 14.0484 19.3445 14.0735C19.2838 14.0987 19.2287 14.1355 19.1822 14.1819C19.1358 14.2284 19.099 14.2835 19.0739 14.3442C19.0487 14.4048 19.0358 14.4699 19.0358 14.5355C19.0358 14.6012 19.0487 14.6662 19.0739 14.7269C19.099 14.7876 19.1358 14.8427 19.1822 14.8891L19.5179 15.2247C18.6628 15.9396 17.61 16.3765 16.5 16.477V16C16.5 15.8674 16.4473 15.7402 16.3536 15.6464C16.2598 15.5527 16.1326 15.5 16 15.5C15.8674 15.5 15.7402 15.5527 15.6464 15.6464C15.5527 15.7402 15.5 15.8674 15.5 16V16.477C14.3902 16.3765 13.3374 15.9397 12.4824 15.225L12.8181 14.8894C12.9118 14.7957 12.9645 14.6685 12.9645 14.5358C12.9645 14.4032 12.9118 14.276 12.8181 14.1823C12.7243 14.0885 12.5971 14.0358 12.4645 14.0358C12.3318 14.0358 12.2047 14.0885 12.1109 14.1823L11.7753 14.5179C11.0604 13.6628 10.6235 12.61 10.5229 11.5H11C11.1326 11.5 11.2598 11.4473 11.3536 11.3536C11.4473 11.2598 11.5 11.1326 11.5 11C11.5 10.8674 11.4473 10.7402 11.3536 10.6464C11.2598 10.5527 11.1326 10.5 11 10.5H10.5229C10.6236 9.39014 11.0605 8.33741 11.7753 7.48244Z" fill="white"/>
<path id="Vector_3" d="M16 11.5H17.5C17.6326 11.5 17.7598 11.4473 17.8536 11.3536C17.9473 11.2598 18 11.1326 18 11C18 10.8674 17.9473 10.7402 17.8536 10.6464C17.7598 10.5527 17.6326 10.5 17.5 10.5H16.5V8C16.5 7.86739 16.4473 7.74021 16.3536 7.64645C16.2598 7.55268 16.1326 7.5 16 7.5C15.8674 7.5 15.7402 7.55268 15.6464 7.64645C15.5527 7.74021 15.5 7.86739 15.5 8V11C15.5 11.1326 15.5527 11.2598 15.6464 11.3536C15.7402 11.4473 15.8674 11.5 16 11.5Z" fill="white"/>
</g>
</g>
</svg>
