<svg width="32" height="32" viewBox="0 0 32 32" fill="none" xmlns="http://www.w3.org/2000/svg">
<g id="Frame" clip-path="url(#clip0_1016_252)">
<g id="Group">
<path id="Vector" d="M21.5 10.5H12C11.6022 10.5 11.2206 10.658 10.9393 10.9393C10.658 11.2206 10.5 11.6022 10.5 12V21C10.5 21.3978 10.658 21.7794 10.9393 22.0607C11.2206 22.342 11.6022 22.5 12 22.5H20C20.1326 22.5 20.2598 22.4473 20.3535 22.3535L22.8535 19.8535C22.9473 19.7598 23 19.6326 23 19.5V12C23 11.6022 22.842 11.2206 22.5607 10.9393C22.2794 10.658 21.8978 10.5 21.5 10.5ZM20.5 20.793V20H21.293L20.5 20.793ZM22 19H20C19.8674 19 19.7402 19.0527 19.6464 19.1464C19.5527 19.2402 19.5 19.3674 19.5 19.5V21.5H12C11.8674 21.5 11.7402 21.4473 11.6464 21.3536C11.5527 21.2598 11.5 21.1326 11.5 21V13.5H22V19ZM22 12.5H11.5V12C11.5 11.8674 11.5527 11.7402 11.6464 11.6464C11.7402 11.5527 11.8674 11.5 12 11.5H21.5C21.6326 11.5 21.7598 11.5527 21.8536 11.6464C21.9473 11.7402 22 11.8674 22 12V12.5Z" fill="white"/>
<path id="Vector_2" d="M15 15H16V16H15V15ZM17.5 15H18.5V16H17.5V15ZM20 15H21V16H20V15ZM15 17H16V18H15V17ZM12.5 17H13.5V18H12.5V17ZM17.5 17H18.5V18H17.5V17ZM15 19H16V20H15V19ZM12.5 19H13.5V20H12.5V19ZM17.5 19H18.5V20H17.5V19ZM20 17H21V18H20V17ZM27 0.5C26.11 0.5 25.24 0.76392 24.4999 1.25839C23.7599 1.75285 23.1831 2.45566 22.8425 3.27792C22.5019 4.10019 22.4128 5.00499 22.5865 5.87791C22.7601 6.75082 23.1887 7.55264 23.818 8.18198C24.4474 8.81132 25.2492 9.2399 26.1221 9.41353C26.995 9.58717 27.8998 9.49805 28.7221 9.15746C29.5443 8.81686 30.2471 8.24009 30.7416 7.50007C31.2361 6.76005 31.5 5.89002 31.5 5C31.4987 3.80693 31.0241 2.66311 30.1805 1.81948C29.3369 0.975854 28.1931 0.501323 27 0.5ZM27 8.5C26.3078 8.5 25.6311 8.29473 25.0555 7.91014C24.4799 7.52556 24.0313 6.97893 23.7664 6.33939C23.5015 5.69985 23.4322 4.99612 23.5673 4.31718C23.7023 3.63825 24.0356 3.01461 24.5251 2.52513C25.0146 2.03564 25.6383 1.7023 26.3172 1.56725C26.9961 1.4322 27.6999 1.50151 28.3394 1.76642C28.9789 2.03133 29.5256 2.47993 29.9101 3.0555C30.2947 3.63108 30.5 4.30777 30.5 5C30.4988 5.92789 30.1297 6.81744 29.4736 7.47356C28.8174 8.12968 27.9279 8.49881 27 8.5ZM5 31.5C5.89002 31.5 6.76005 31.2361 7.50007 30.7416C8.24009 30.2471 8.81686 29.5443 9.15746 28.7221C9.49805 27.8998 9.58717 26.995 9.41353 26.1221C9.2399 25.2492 8.81132 24.4474 8.18198 23.818C7.55264 23.1887 6.75082 22.7601 5.87791 22.5865C5.00499 22.4128 4.10019 22.5019 3.27792 22.8425C2.45566 23.1831 1.75285 23.7599 1.25839 24.4999C0.76392 25.24 0.5 26.11 0.5 27C0.501323 28.1931 0.975854 29.3369 1.81948 30.1805C2.66311 31.0241 3.80693 31.4987 5 31.5ZM5 23.5C5.69223 23.5 6.36892 23.7053 6.9445 24.0899C7.52007 24.4744 7.96867 25.0211 8.23358 25.6606C8.49849 26.3001 8.5678 27.0039 8.43275 27.6828C8.2977 28.3617 7.96436 28.9854 7.47487 29.4749C6.98539 29.9644 6.36175 30.2977 5.68282 30.4327C5.00388 30.5678 4.30015 30.4985 3.66061 30.2336C3.02107 29.9687 2.47444 29.5201 2.08986 28.9445C1.70527 28.3689 1.5 27.6922 1.5 27C1.50119 26.0721 1.87032 25.1826 2.52644 24.5264C3.18256 23.8703 4.07211 23.5012 5 23.5Z" fill="white"/>
<path id="Vector_3" d="M26.1159 5.70703L25.4089 5.00003L24.6999 5.70703L25.7604 6.76753C25.8541 6.86126 25.9813 6.91392 26.1139 6.91392C26.2465 6.91392 26.3736 6.86126 26.4674 6.76753L29.2999 3.93953L28.5909 3.23253L26.1159 5.70703ZM5.24988 28H4.74988C4.68357 28 4.61999 27.9737 4.5731 27.9268C4.52622 27.8799 4.49988 27.8163 4.49988 27.75H3.49988C3.49993 28.0381 3.59949 28.3173 3.78171 28.5404C3.96393 28.7636 4.21762 28.9169 4.49988 28.9745V29.5H5.49988V28.9745C5.80312 28.9123 6.0725 28.7398 6.25585 28.4904C6.4392 28.241 6.52347 27.9324 6.49235 27.6244C6.46124 27.3164 6.31694 27.0309 6.08741 26.8232C5.85788 26.6155 5.55944 26.5003 5.24988 26.5H4.74988C4.68357 26.5 4.61999 26.4737 4.5731 26.4268C4.52622 26.3799 4.49988 26.3163 4.49988 26.25C4.49988 26.1837 4.52622 26.1201 4.5731 26.0732C4.61999 26.0264 4.68357 26 4.74988 26H5.24988C5.31618 26 5.37977 26.0264 5.42665 26.0732C5.47354 26.1201 5.49988 26.1837 5.49988 26.25H6.49988C6.49982 25.9619 6.40026 25.6827 6.21805 25.4596C6.03583 25.2365 5.78214 25.0831 5.49988 25.0255V24.5H4.49988V25.0255C4.19663 25.0877 3.92725 25.2603 3.74391 25.5097C3.56056 25.7591 3.47629 26.0677 3.5074 26.3757C3.53852 26.6837 3.68281 26.9692 3.91235 27.1769C4.14188 27.3846 4.44032 27.4997 4.74988 27.5H5.24988C5.31618 27.5 5.37977 27.5264 5.42665 27.5732C5.47354 27.6201 5.49988 27.6837 5.49988 27.75C5.49988 27.8163 5.47354 27.8799 5.42665 27.9268C5.37977 27.9737 5.31618 28 5.24988 28ZM15.9999 29C15.6661 28.9982 15.3325 28.9834 14.9999 28.9555V28C14.9999 27.9115 14.9764 27.8246 14.9318 27.7482C14.8872 27.6717 14.8231 27.6085 14.7461 27.5649C14.669 27.5214 14.5818 27.499 14.4933 27.5002C14.4048 27.5013 14.3182 27.526 14.2424 27.5715L11.7424 29.0715C11.6685 29.116 11.6073 29.1788 11.5648 29.2539C11.5224 29.329 11.5 29.4138 11.5 29.5C11.5 29.5863 11.5224 29.6711 11.5648 29.7462C11.6073 29.8213 11.6685 29.8841 11.7424 29.9285L14.2424 31.4285C14.3182 31.4741 14.4048 31.4987 14.4933 31.4999C14.5818 31.501 14.669 31.4787 14.7461 31.4351C14.8231 31.3916 14.8872 31.3283 14.9318 31.2519C14.9764 31.1754 14.9999 31.0885 14.9999 31V29.9585C15.3369 29.983 15.6719 30 15.9999 30C18.2394 29.9991 20.446 29.461 22.4346 28.4311C24.4232 27.4012 26.1358 25.9094 27.4288 24.0809C28.7218 22.2523 29.5574 20.1404 29.8655 17.9222C30.1737 15.704 29.9454 13.4443 29.1999 11.3325L28.2579 11.6675C28.9497 13.6284 29.1612 15.7266 28.8748 17.7861C28.5884 19.8456 27.8123 21.8064 26.6116 23.5041C25.411 25.2018 23.8208 26.5868 21.9744 27.5431C20.128 28.4994 18.0792 28.999 15.9999 29ZM13.9999 30.1165L12.9714 29.5L13.9999 28.8835V30.1165ZM15.9999 3.00003C16.3249 3.00003 16.6584 3.01703 16.9999 3.04203V4.00003C16.9999 4.08853 17.0234 4.17543 17.068 4.25188C17.1126 4.32832 17.1767 4.39155 17.2537 4.43513C17.3307 4.4787 17.4179 4.50105 17.5064 4.49989C17.5949 4.49873 17.6815 4.4741 17.7574 4.42853L20.2574 2.92853C20.3313 2.88407 20.3925 2.82125 20.4349 2.74617C20.4774 2.67108 20.4997 2.58629 20.4997 2.50003C20.4997 2.41377 20.4774 2.32897 20.4349 2.25389C20.3925 2.1788 20.3313 2.11598 20.2574 2.07153L17.7574 0.571527C17.6815 0.52595 17.5949 0.501325 17.5064 0.500165C17.4179 0.499005 17.3307 0.521353 17.2537 0.564926C17.1767 0.608499 17.1126 0.671736 17.068 0.748178C17.0234 0.82462 16.9999 0.911529 16.9999 1.00003V2.03903C16.6671 2.01479 16.3336 2.00178 15.9999 2.00003C13.7604 2.001 11.5538 2.53902 9.56518 3.56894C7.57657 4.59887 5.86394 6.09067 4.57097 7.9192C3.27799 9.74773 2.44237 11.8597 2.13421 14.0779C1.82604 16.296 2.05431 18.5558 2.79988 20.6675L3.74188 20.3325C3.05007 18.3716 2.83852 16.2735 3.12495 14.214C3.41139 12.1544 4.18747 10.1936 5.38812 8.49595C6.58876 6.79827 8.17896 5.41323 10.0254 4.45696C11.8718 3.50069 13.9205 3.00108 15.9999 3.00003ZM17.9999 1.88353L19.0284 2.50003L17.9999 3.11653V1.88353Z" fill="white"/>
</g>
</g>
<defs>
<clipPath id="clip0_1016_252">
<rect width="32" height="32" fill="white"/>
</clipPath>
</defs>
</svg>
