<svg width="32" height="32" viewBox="0 0 32 32" fill="none" xmlns="http://www.w3.org/2000/svg">
<g id="Frame" clip-path="url(#clip0_1016_244)">
<g id="Group">
<path id="Vector" d="M25.7948 21.1361V17.8048L24.3889 18.3518L24.3848 18.3425L24.3513 18.2817C23.8126 17.4429 22.9414 16.8594 21.9604 16.6815L18.5776 16.066V15.7989C19.8426 15.0643 20.769 13.8111 21.0577 12.3295C21.9949 12.1357 22.7017 11.3042 22.7017 10.3103V5.21855C22.7025 4.52166 22.478 3.84318 22.0619 3.28422C21.6457 2.72526 21.06 2.31574 20.3922 2.1167L20.1344 1.85894C18.9353 0.659858 17.3414 0 15.6458 0C12.146 0 9.29832 2.84718 9.29832 6.34752V10.3103C9.29832 11.3042 10.0051 12.1357 10.9423 12.3295C11.2315 13.8111 12.1574 15.0649 13.4224 15.7989V16.066L10.0401 16.681C9.06015 16.8588 8.18945 17.4414 7.65022 18.2796L7.61929 18.3549L6.20523 17.8048V21.1361C5.35257 21.1361 4.65869 21.8299 4.65869 22.6826V24.7447C4.65869 25.5973 5.35257 26.2912 6.20523 26.2912V28.1904L16 32L25.7948 28.1904V26.2912C26.6474 26.2912 27.3413 25.5973 27.3413 24.7447V22.6826C27.3413 21.8299 26.6474 21.1361 25.7948 21.1361ZM19.5436 17.2898L21.7758 17.6955C22.4331 17.8151 23.0151 18.1945 23.4033 18.7348L18.4157 20.6742L19.5436 17.2898ZM14.4973 16.2717C14.9731 16.417 15.4773 16.4964 16 16.4964C16.5227 16.4964 17.0269 16.417 17.5027 16.2717L16 17.3986L14.4973 16.2717ZM15.2154 18.0987L14.1632 19.1503L13.4807 17.1032L13.8091 17.0439L15.2154 18.0987ZM18.1909 17.0444L18.5193 17.1037L17.8368 19.1508L16.7846 18.0992L18.1909 17.0444ZM21.1551 11.198V9.42256C21.4619 9.60144 21.6706 9.93034 21.6706 10.3103C21.6706 10.6902 21.4619 11.0191 21.1551 11.198ZM10.8449 11.198C10.5381 11.0191 10.3293 10.6902 10.3293 10.3103C10.3293 9.93034 10.5381 9.60144 10.8449 9.42256V11.198ZM10.8449 7.73271V8.32142C10.6641 8.36867 10.4906 8.44048 10.3293 8.53485V6.34752C10.3293 3.41631 12.7141 1.03103 15.6458 1.03103C17.0656 1.03103 18.4013 1.58417 19.4055 2.58839L19.8602 3.04359L19.9988 3.07762C20.4766 3.19636 20.9009 3.47173 21.2039 3.85978C21.507 4.24783 21.6713 4.7262 21.6706 5.21855V8.53485C21.5095 8.44027 21.336 8.36845 21.1551 8.32142V7.73271H19.5204C18.1234 7.73271 16.7882 7.06563 15.9505 5.94851L15.5407 5.40104L14.5163 6.42588C13.673 7.26874 12.5522 7.73271 11.3604 7.73271H10.8449ZM11.8759 11.3413V8.74002C13.1487 8.62197 14.3297 8.06985 15.2453 7.15481L15.4458 6.95428C16.4794 8.09511 17.9682 8.76373 19.5204 8.76373H20.1241V11.3413C20.1241 13.6152 18.2739 15.4654 16 15.4654C13.7261 15.4654 11.8759 13.6152 11.8759 11.3413ZM10.2242 17.6955L12.4564 17.2898L13.5843 20.6742L8.59567 18.7343C8.98385 18.1935 9.5669 17.8151 10.2242 17.6955ZM5.68972 24.7447V22.6826C5.68972 22.398 5.92118 22.1671 6.20523 22.1671C7.05789 22.1671 7.75177 22.861 7.75177 23.7136C7.75177 24.5663 7.05789 25.2602 6.20523 25.2602C5.92118 25.2602 5.68972 25.0292 5.68972 24.7447ZM15.4845 30.6927L7.23626 27.4856V26.0726C8.14511 25.6736 8.7828 24.7679 8.7828 23.7136C8.7828 22.6594 8.14511 21.7536 7.23626 21.3546V19.3122L15.4845 22.5197V30.6927ZM13.9539 20.8185L16 18.7719L18.0461 20.818L16 21.6139L13.9539 20.8185ZM24.7637 27.4851L16.5155 30.6921V22.5197L24.7637 19.3122V21.3546C23.8549 21.7536 23.2172 22.6594 23.2172 23.7136C23.2172 24.7679 23.8549 25.6736 24.7637 26.0726V27.4851ZM26.3103 24.7447C26.3103 25.0292 26.0788 25.2602 25.7948 25.2602C24.9421 25.2602 24.2482 24.5663 24.2482 23.7136C24.2482 22.861 24.9421 22.1671 25.7948 22.1671C26.0788 22.1671 26.3103 22.398 26.3103 22.6826V24.7447Z" fill="white"/>
</g>
</g>
<defs>
<clipPath id="clip0_1016_244">
<rect width="32" height="32" fill="white"/>
</clipPath>
</defs>
</svg>
