<svg width="32" height="32" viewBox="0 0 32 32" fill="none" xmlns="http://www.w3.org/2000/svg">
<g id="Frame" clip-path="url(#clip0_1016_238)">
<g id="Group">
<g id="Teacher Man">
<path id="Vector" d="M6.00007 28C5.99915 27.6908 5.90253 27.3894 5.72348 27.1373C5.54443 26.8852 5.29173 26.6947 5.00007 26.592V25C5.00007 24.8674 4.94739 24.7402 4.85362 24.6464C4.75986 24.5527 4.63268 24.5 4.50007 24.5H1.50007C1.14666 24.4993 0.804412 24.6238 0.53395 24.8513C0.263488 25.0787 0.0822645 25.3946 0.0223775 25.7429C-0.0375095 26.0912 0.0278047 26.4495 0.206752 26.7542C0.385699 27.059 0.66673 27.2906 1.00007 27.408V28.592C0.66673 28.7094 0.385699 28.941 0.206752 29.2458C0.0278047 29.5505 -0.0375095 29.9088 0.0223775 30.2571C0.0822645 30.6054 0.263488 30.9213 0.53395 31.1488C0.804412 31.3762 1.14666 31.5007 1.50007 31.5H4.50007C4.63268 31.5 4.75986 31.4473 4.85362 31.3536C4.94739 31.2598 5.00007 31.1326 5.00007 31V29.408C5.29173 29.3053 5.54443 29.1148 5.72348 28.8627C5.90253 28.6106 5.99915 28.3092 6.00007 28ZM1.50007 25.5H4.00007V26.5H1.50007C1.36746 26.5 1.24029 26.4473 1.14652 26.3536C1.05275 26.2598 1.00007 26.1326 1.00007 26C1.00007 25.8674 1.05275 25.7402 1.14652 25.6464C1.24029 25.5527 1.36746 25.5 1.50007 25.5ZM4.00007 30.5H1.50007C1.36746 30.5 1.24029 30.4473 1.14652 30.3536C1.05275 30.2598 1.00007 30.1326 1.00007 30C1.00007 29.8674 1.05275 29.7402 1.14652 29.6464C1.24029 29.5527 1.36746 29.5 1.50007 29.5H4.00007V30.5ZM4.50007 28.5H2.00007V27.5H4.50007C4.63268 27.5 4.75986 27.5527 4.85362 27.6464C4.94739 27.7402 5.00007 27.8674 5.00007 28C5.00007 28.1326 4.94739 28.2598 4.85362 28.3536C4.75986 28.4473 4.63268 28.5 4.50007 28.5Z" fill="white"/>
<path id="Vector_2" d="M31.4745 12.5775L31.245 4.211C31.2358 3.88691 31.1006 3.57918 30.8681 3.3532C30.6357 3.12721 30.3242 3.00079 30 3.00079C29.6758 3.00079 29.3643 3.12721 29.1319 3.3532C28.8994 3.57918 28.7642 3.88691 28.755 4.211L28.509 13.068L24.169 18.986L20.825 16.1205C20.781 16.0822 20.7305 16.0521 20.676 16.0315L16.7175 14.5475L14.5 13.217V11.6175C14.9036 11.2934 15.241 10.8944 15.4935 10.4425C15.6596 10.4807 15.8295 10.5 16 10.5C16.4966 10.5303 16.9851 10.3635 17.3595 10.0359C17.7339 9.70825 17.9641 9.24622 18 8.75V4.5C17.9987 3.43954 17.5768 2.42289 16.827 1.67303C16.0771 0.923175 15.0605 0.501323 14 0.5H10C9.54963 0.500572 9.11257 0.652835 8.75934 0.932231C8.4061 1.21163 8.15728 1.60186 8.053 2.04C7.47723 2.14543 6.95658 2.44924 6.58153 2.89865C6.20647 3.34805 6.00071 3.91465 6 4.5V8.75C6.03593 9.24622 6.26607 9.70825 6.64049 10.0359C7.01491 10.3635 7.50341 10.5303 8 10.5C8.17046 10.5 8.34037 10.4807 8.5065 10.4425C8.75904 10.8944 9.09637 11.2934 9.5 11.6175V13.217L7.2825 14.547L5.2715 15.302C4.60561 15.554 4.03192 16.0022 3.62631 16.5874C3.22071 17.1725 3.00231 17.867 3 18.579V23C3 23.1326 3.05268 23.2598 3.14645 23.3536C3.24021 23.4473 3.36739 23.5 3.5 23.5C3.63261 23.5 3.75979 23.4473 3.85355 23.3536C3.94732 23.2598 4 23.1326 4 23V18.579C4.00163 18.0705 4.15763 17.5744 4.44735 17.1565C4.73707 16.7386 5.14686 16.4184 5.6225 16.2385L7 15.7215V30.5H6.5C6.36739 30.5 6.24021 30.5527 6.14645 30.6464C6.05268 30.7402 6 30.8674 6 31C6 31.1326 6.05268 31.2598 6.14645 31.3536C6.24021 31.4473 6.36739 31.5 6.5 31.5H20.5C20.6326 31.5 20.7598 31.4473 20.8536 31.3536C20.9473 31.2598 21 31.1326 21 31V24.2555L24.754 25.8505C24.8659 25.898 24.9912 25.9032 25.1066 25.865C25.222 25.8268 25.3196 25.7479 25.381 25.643L31.751 14.764C31.952 14.4199 32.0339 14.0192 31.9839 13.6238C31.9339 13.2285 31.7548 12.8607 31.4745 12.5775ZM30 4C30.0639 3.99972 30.1254 4.02456 30.1713 4.06916C30.2171 4.11376 30.2436 4.17457 30.245 4.2385L30.4595 12.0625C30.1485 12.0064 29.8281 12.0393 29.535 12.1575L29.755 4.2385C29.7564 4.17457 29.7829 4.11376 29.8287 4.06916C29.8746 4.02456 29.9361 3.99972 30 4ZM11.45 18.5H12.55L13.473 27.27L12 28.375L10.527 27.27L11.45 18.5ZM12.699 17.5H11.301L10.901 16.7425L12 16.083L13.099 16.743L12.699 17.5ZM12.806 15.4005L14.0775 14.1295L15.694 15.0995L14.4225 16.3705L12.806 15.4005ZM9 8.5V6.451C9.62034 6.36312 10.1962 6.07871 10.643 5.6395C12.024 6.21138 13.5053 6.50156 15 6.493V8.5C15 9.29565 14.6839 10.0587 14.1213 10.6213C13.5587 11.1839 12.7956 11.5 12 11.5C11.2044 11.5 10.4413 11.1839 9.87868 10.6213C9.31607 10.0587 9 9.29565 9 8.5ZM16 9.5C15.9571 9.49754 15.9144 9.49286 15.872 9.486C15.9557 9.16397 15.9987 8.83272 16 8.5V8C16.542 8 17 8.3435 17 8.75C17 9.1565 16.542 9.5 16 9.5ZM8.5 3C8.63261 3 8.75979 2.94732 8.85355 2.85355C8.94732 2.75979 9 2.63261 9 2.5C9.00026 2.23486 9.10571 1.98066 9.29319 1.79319C9.48066 1.60571 9.73486 1.50026 10 1.5H14C14.7954 1.50093 15.5579 1.81729 16.1203 2.3797C16.6827 2.94211 16.9991 3.70463 17 4.5V7.2435C16.6907 7.08417 16.3479 7.00071 16 7V6C16 5.86739 15.9473 5.74021 15.8536 5.64645C15.7598 5.55268 15.6326 5.5 15.5 5.5C12.231 5.5 10.7885 4.5915 10.7775 4.584C10.7208 4.54621 10.6569 4.52042 10.5899 4.50821C10.5228 4.496 10.454 4.49762 10.3876 4.51298C10.3212 4.52834 10.2586 4.55711 10.2038 4.59752C10.1489 4.63794 10.1029 4.68915 10.0685 4.748C9.6395 5.483 8.5095 5.5 8.5 5.5C8.36739 5.5 8.24021 5.55268 8.14645 5.64645C8.05268 5.74021 8 5.86739 8 6V7C7.65207 7.00071 7.3093 7.08417 7 7.2435V4.5C7.0004 4.1023 7.15856 3.721 7.43978 3.43978C7.721 3.15856 8.1023 3.0004 8.5 3ZM8 9.5C7.458 9.5 7 9.1565 7 8.75C7 8.3435 7.458 8 8 8V8.5C8.0013 8.83272 8.0443 9.16397 8.128 9.486C8.0856 9.49286 8.04288 9.49754 8 9.5ZM12 12.5C12.5143 12.4998 13.0238 12.3998 13.5 12.2055V13.293L12 14.793L10.5 13.293V12.205C10.9762 12.3995 11.4856 12.4996 12 12.5ZM9.9225 14.13L11.194 15.4005L9.5775 16.3705L8.306 15.0995L9.9225 14.13ZM8 16.2065L9.1465 17.353C9.22538 17.4319 9.32838 17.4821 9.43909 17.4957C9.5498 17.5093 9.66188 17.4854 9.7575 17.428L10.0425 17.257L10.487 18.0985L9.503 27.4475C9.49383 27.5335 9.50717 27.6203 9.5417 27.6996C9.57624 27.7788 9.63079 27.8477 9.7 27.8995L11.7 29.3995C11.7865 29.4646 11.8918 29.4998 12 29.4998C12.1082 29.4998 12.2135 29.4646 12.3 29.3995L14.3 27.8995C14.3692 27.8477 14.4238 27.7788 14.4583 27.6996C14.4928 27.6203 14.5062 27.5335 14.497 27.4475L13.513 18.0985L13.958 17.257L14.243 17.428C14.3386 17.4853 14.4505 17.5091 14.5611 17.4955C14.6718 17.4819 14.7747 17.4317 14.8535 17.353L16 16.207V30.5H8V16.2065ZM24.74 24.7575L21 23.17V21C21 20.8674 20.9473 20.7402 20.8536 20.6464C20.7598 20.5527 20.6326 20.5 20.5 20.5C20.3674 20.5 20.2402 20.5527 20.1464 20.6464C20.0527 20.7402 20 20.8674 20 21V30.5H17V15.7215L20.2415 16.9375L23.5755 19.795L23.093 20.4525C23.0146 20.5595 22.9818 20.6933 23.0021 20.8244C23.0223 20.9556 23.0937 21.0733 23.2008 21.1518C23.3078 21.2302 23.4416 21.2629 23.5727 21.2427C23.7038 21.2225 23.8216 21.151 23.9 21.044L28.2425 15.1225L29.7295 16.2375L24.74 24.7575ZM30.888 14.2585L30.238 15.3685L28.834 14.3155L29.5305 13.3655C29.6539 13.1973 29.8371 13.0829 30.0424 13.046C30.2477 13.0091 30.4593 13.0524 30.6335 13.167C30.8078 13.2816 30.9314 13.4588 30.9787 13.6619C31.0261 13.8651 30.9936 14.0786 30.888 14.2585Z" fill="white"/>
</g>
</g>
</g>
<defs>
<clipPath id="clip0_1016_238">
<rect width="32" height="32" fill="white"/>
</clipPath>
</defs>
</svg>
