<svg width="32" height="32" viewBox="0 0 32 32" fill="none" xmlns="http://www.w3.org/2000/svg">
<g id="Frame">
<g id="Group">
<path id="Vector" d="M25.6876 16.4289V13.4375C25.6876 9.07363 22.7869 5.37494 18.8126 4.16687V2.8125C18.8126 1.26169 17.5509 0 16.0001 0C14.4493 0 13.1876 1.26169 13.1876 2.8125V4.16687C9.21324 5.37494 6.31261 9.07356 6.31261 13.4375V16.4289C6.31261 20.2621 4.85149 23.8969 2.19843 26.6636C2.07122 26.7962 1.98579 26.9633 1.95276 27.1441C1.91974 27.3249 1.94057 27.5113 2.01267 27.6804C2.08477 27.8494 2.20496 27.9935 2.3583 28.0948C2.51163 28.1961 2.69135 28.25 2.87511 28.25H11.4069C11.8424 30.387 13.7364 32 16.0001 32C18.2639 32 20.1577 30.387 20.5933 28.25H29.1251C29.3089 28.25 29.4886 28.196 29.6419 28.0947C29.7952 27.9935 29.9154 27.8493 29.9875 27.6803C30.0596 27.5113 30.0804 27.3248 30.0474 27.1441C30.0144 26.9633 29.929 26.7963 29.8018 26.6636C27.1487 23.8969 25.6876 20.2621 25.6876 16.4289ZM15.0626 2.8125C15.0626 2.29556 15.4832 1.875 16.0001 1.875C16.517 1.875 16.9376 2.29556 16.9376 2.8125V3.7955C16.6291 3.76575 16.3164 3.75 16.0001 3.75C15.6839 3.75 15.3712 3.76575 15.0626 3.7955V2.8125ZM16.0001 30.125C14.7779 30.125 13.7359 29.3412 13.3489 28.25H18.6514C18.2644 29.3412 17.2223 30.125 16.0001 30.125ZM4.89574 26.375C7.0308 23.513 8.18761 20.0495 8.18761 16.4289V13.4375C8.18761 9.12969 11.6923 5.625 16.0001 5.625C20.3079 5.625 23.8126 9.12969 23.8126 13.4375V16.4289C23.8126 20.0495 24.9694 23.513 27.1045 26.375H4.89574ZM28.1876 13.4375C28.1876 13.9552 28.6074 14.375 29.1251 14.375C29.6429 14.375 30.0626 13.9552 30.0626 13.4375C30.0626 9.68125 28.5999 6.14981 25.9438 3.49375C25.5777 3.12769 24.9841 3.12762 24.618 3.49375C24.2519 3.85988 24.2519 4.45344 24.618 4.81956C26.9199 7.1215 28.1876 10.1821 28.1876 13.4375ZM2.87511 14.375C3.39286 14.375 3.81261 13.9552 3.81261 13.4375C3.81261 10.1821 5.08036 7.12156 7.38224 4.81962C7.74836 4.4535 7.74836 3.85994 7.38224 3.49381C7.01618 3.12769 6.42255 3.12769 6.05643 3.49381C3.40036 6.14988 1.93761 9.68125 1.93761 13.4375C1.93761 13.9552 2.35736 14.375 2.87511 14.375Z" fill="white"/>
</g>
</g>
</svg>
