<svg width="32" height="32" viewBox="0 0 32 32" fill="none" xmlns="http://www.w3.org/2000/svg">
<g id="Frame" clip-path="url(#clip0_1016_232)">
<g id="Group">
<path id="Vector" d="M29.7302 7.9265C29.6689 7.92009 29.607 7.92583 29.548 7.94338C29.489 7.96094 29.434 7.98996 29.3862 8.0288C29.3385 8.06764 29.2988 8.11552 29.2696 8.1697C29.2403 8.22389 29.222 8.28331 29.2158 8.34457C29.1266 9.20913 28.823 10.0028 28.3598 10.6769V4.99125C28.7378 5.53878 29.0024 6.15644 29.138 6.80782C29.1907 7.06125 29.4389 7.22425 29.6923 7.17132C29.7526 7.1588 29.8098 7.13453 29.8607 7.0999C29.9116 7.06526 29.9551 7.02094 29.9889 6.96947C30.0226 6.91799 30.0459 6.86037 30.0574 6.79989C30.0689 6.73942 30.0683 6.67727 30.0558 6.617C29.478 3.8375 26.9729 1.82013 24.0992 1.82013C20.7464 1.82013 18.0186 4.51488 18.0186 7.82713C18.0186 11.1394 20.7463 13.8342 24.0992 13.8342C25.6116 13.8342 27.0621 13.2801 28.1836 12.2739C29.2987 11.2734 29.9964 9.91213 30.1483 8.44075C30.1547 8.37953 30.1489 8.31765 30.1313 8.25866C30.1137 8.19967 30.0847 8.14472 30.0458 8.09696C30.007 8.0492 29.9591 8.00956 29.905 7.98031C29.8508 7.95106 29.7914 7.93278 29.7302 7.9265ZM27.4223 4.01794V11.704C26.5241 12.4514 25.3628 12.8966 24.0992 12.8966C21.2633 12.8966 18.9561 10.6224 18.9561 7.82707C18.9561 5.03175 21.2633 2.75757 24.0992 2.75757C25.3506 2.75757 26.5191 3.2085 27.4251 3.96619C27.4232 3.98313 27.4223 4.00044 27.4223 4.01794Z" fill="#A2B6B2"/>
<path id="Vector_2" d="M20.9303 7.82708C20.9303 6.99101 21.2589 6.20583 21.8555 5.61601C21.9426 5.52833 21.9915 5.4098 21.9916 5.28621C21.9918 5.16263 21.9431 5.04398 21.8562 4.9561C21.7693 4.86822 21.6512 4.81821 21.5277 4.81695C21.4041 4.81569 21.285 4.86329 21.1963 4.94939C20.4203 5.71658 19.9929 6.73858 19.9929 7.82701C19.9929 8.91551 20.4203 9.93758 21.1963 10.7048C21.284 10.7917 21.4025 10.8404 21.5259 10.8403C21.5879 10.8404 21.6493 10.8281 21.7065 10.8042C21.7638 10.7803 21.8157 10.7452 21.8592 10.7011C21.9466 10.6127 21.9953 10.4932 21.9946 10.3689C21.9939 10.2446 21.9439 10.1256 21.8555 10.0382C21.2589 9.44833 20.9303 8.66308 20.9303 7.82708ZM6.06689 26.5564C6.06689 26.6807 6.11628 26.7999 6.20419 26.8878C6.2921 26.9758 6.41132 27.0251 6.53564 27.0251H20.4896C20.7486 27.0251 20.9584 26.8153 20.9584 26.5564C20.9584 26.2975 20.7486 26.0876 20.4896 26.0876H18.5316V23.8263C18.5316 23.4005 18.1853 23.0541 17.7595 23.0541H16.5461C16.1204 23.0541 15.774 23.4005 15.774 23.8263V26.0876H14.8915V20.1861C14.8915 19.7604 14.5451 19.414 14.1193 19.414H12.906C12.4802 19.414 12.1338 19.7604 12.1338 20.1861V26.0876H11.2513V22.6129C11.2513 22.1871 10.9049 21.8408 10.4791 21.8408H9.26577C8.84002 21.8408 8.49364 22.1871 8.49364 22.6129V26.0876H7.00439V19.8828C7.00439 19.7585 6.95501 19.6393 6.8671 19.5514C6.77919 19.4635 6.65996 19.4141 6.53564 19.4141C6.41132 19.4141 6.2921 19.4635 6.20419 19.5514C6.11628 19.6393 6.06689 19.7585 6.06689 19.8828V26.5564ZM16.7115 23.9917H17.594V26.0876H16.7115V23.9917ZM13.0713 20.3516H13.9539V26.0876H13.0713V20.3516ZM9.43114 22.7783H10.3137V26.0876H9.43114V22.7783ZM6.53564 15.4981H16.8494C17.1083 15.4981 17.3181 15.2883 17.3181 15.0293C17.3181 14.7704 17.1083 14.5606 16.8494 14.5606H6.53564C6.41132 14.5606 6.2921 14.61 6.20419 14.6979C6.11628 14.7858 6.06689 14.905 6.06689 15.0293C6.06689 15.1536 6.11628 15.2729 6.20419 15.3608C6.2921 15.4487 6.41132 15.4981 6.53564 15.4981ZM6.53564 10.0378H8.96239C9.22127 10.0378 9.43114 9.82801 9.43114 9.56908C9.43114 9.31014 9.22127 9.10033 8.96239 9.10033H6.53564C6.27677 9.10033 6.06689 9.31014 6.06689 9.56908C6.06689 9.82801 6.27677 10.0378 6.53564 10.0378ZM6.53564 13.678H15.0293C15.2881 13.678 15.498 13.4682 15.498 13.2093C15.498 12.9503 15.2881 12.7405 15.0293 12.7405H6.53564C6.27677 12.7405 6.06689 12.9503 6.06689 13.2093C6.06689 13.4682 6.27677 13.678 6.53564 13.678ZM6.53564 5.18433H13.8159C14.0748 5.18433 14.2846 4.97451 14.2846 4.71558C14.2846 4.45664 14.0748 4.24683 13.8159 4.24683H6.53564C6.27677 4.24683 6.06689 4.45664 6.06689 4.71558C6.06689 4.97451 6.27677 5.18433 6.53564 5.18433Z" fill="#A2B6B2"/>
<path id="Vector_3" d="M32 7.82706C32 3.51125 28.4557 0 24.0993 0C22.5419 0 21.0881 0.448875 19.8631 1.22263C19.8324 1.21646 19.8012 1.21336 19.7699 1.21337H2.28881C1.02675 1.21337 0 2.24012 0 3.50219V8.35569C0 8.48001 0.049386 8.59924 0.137294 8.68714C0.225201 8.77505 0.34443 8.82444 0.46875 8.82444H3.64013V28.3765C3.64013 28.9695 4.12256 29.4519 4.71556 29.4519H20.4981C20.757 29.4519 20.9668 29.2421 20.9668 28.9832C20.9668 28.7242 20.757 28.5144 20.4981 28.5144H4.71556C4.67899 28.5144 4.64394 28.4998 4.61808 28.474C4.59222 28.4481 4.57767 28.4131 4.57762 28.3765V3.50225C4.57762 2.99725 4.41319 2.52988 4.13513 2.15094H18.6647C17.1465 3.57819 16.1986 5.59488 16.1986 7.82713C16.1986 11.6772 19.0189 14.8871 22.7206 15.5349L22.7202 20.0834C22.1692 20.2582 21.7691 20.7713 21.7691 21.3755V21.4406C21.7691 21.8386 21.9426 22.1972 22.2186 22.4457C21.9281 23.6412 21.7691 25.141 21.7691 26.6999C21.7691 28.0002 21.8789 29.2601 22.0865 30.3436C22.2704 31.3034 23.117 32 24.0993 32C25.0817 32 25.9282 31.3034 26.1121 30.3436C26.1685 30.0478 26.2164 29.7504 26.2558 29.4519H27.2844C27.8774 29.4519 28.3599 28.9694 28.3599 28.3764V15.9391C28.3599 15.6802 28.1501 15.4704 27.8911 15.4704C27.6322 15.4704 27.4224 15.6802 27.4224 15.9391V28.3765C27.4223 28.4131 27.4078 28.4481 27.3819 28.474C27.3561 28.4998 27.321 28.5144 27.2844 28.5144H26.3563C26.4048 27.9285 26.4296 27.3188 26.4296 26.7C26.4296 25.1414 26.2705 23.6414 25.9801 22.4461C26.2561 22.1979 26.4296 21.8394 26.4296 21.4415V21.3764C26.4296 20.7719 26.0291 20.2584 25.4778 20.0835L25.4781 15.5349C29.1797 14.887 32 11.6772 32 7.82706ZM3.64013 7.88694H0.9375V3.50219C0.9375 2.75706 1.54369 2.15088 2.28881 2.15088C3.03394 2.15088 3.64013 2.75706 3.64013 3.50219V7.88694ZM25.1914 30.1671C25.092 30.6859 24.6327 31.0625 24.0994 31.0625C23.566 31.0625 23.1068 30.6859 23.0073 30.1671C22.8106 29.1409 22.7066 27.9419 22.7066 26.6999C22.7066 25.2696 22.845 23.8994 23.0988 22.797C23.1112 22.7973 23.1237 22.7975 23.1361 22.7975H25.0634C25.0756 22.7975 25.0877 22.7973 25.0998 22.797C25.3536 23.8994 25.4921 25.2698 25.4921 26.6999C25.4921 27.9419 25.3881 29.1409 25.1914 30.1671ZM25.4921 21.3764V21.4415C25.4921 21.6722 25.2998 21.86 25.0634 21.86H23.1361C22.8993 21.86 22.7066 21.6718 22.7066 21.4406V21.3755C22.7066 21.1448 22.8988 20.957 23.1352 20.957H25.0625C25.2994 20.957 25.4921 21.1451 25.4921 21.3764ZM23.6577 20.0195L23.6581 15.6422C23.9503 15.6583 24.2484 15.6583 24.5406 15.6422L24.5403 20.0195H23.6577ZM24.0993 14.7167C20.2598 14.7167 17.1361 11.626 17.1361 7.82706C17.1361 4.02812 20.2598 0.9375 24.0993 0.9375C27.9388 0.9375 31.0625 4.02812 31.0625 7.82706C31.0625 11.6261 27.9388 14.7167 24.0993 14.7167Z" fill="#A2B6B2"/>
<path id="Vector_4" d="M6.53564 7.00439H11.3891C11.648 7.00439 11.8579 6.79458 11.8579 6.53564C11.8579 6.27671 11.648 6.06689 11.3891 6.06689H6.53564C6.27677 6.06689 6.06689 6.27671 6.06689 6.53564C6.06689 6.79458 6.27677 7.00439 6.53564 7.00439ZM6.53564 17.3181H15.0293C15.2881 17.3181 15.498 17.1083 15.498 16.8494C15.498 16.5905 15.2881 16.3806 15.0293 16.3806H6.53564C6.27677 16.3806 6.06689 16.5905 6.06689 16.8494C6.06689 17.1083 6.27677 17.3181 6.53564 17.3181Z" fill="#A2B6B2"/>
</g>
</g>
<defs>
<clipPath id="clip0_1016_232">
<rect width="32" height="32" fill="white"/>
</clipPath>
</defs>
</svg>
