<svg width="32" height="32" viewBox="0 0 32 32" fill="none" xmlns="http://www.w3.org/2000/svg">
<g id="humbleicons:dashboard">
<path id="Vector" d="M26.6667 6.66665C26.6667 6.31302 26.5263 5.97389 26.2762 5.72384C26.0262 5.47379 25.687 5.33331 25.3334 5.33331H20.0001C19.6465 5.33331 19.3073 5.47379 19.0573 5.72384C18.8072 5.97389 18.6667 6.31302 18.6667 6.66665V13.3333C18.6667 13.6869 18.8072 14.0261 19.0573 14.2761C19.3073 14.5262 19.6465 14.6666 20.0001 14.6666H25.3334C25.687 14.6666 26.0262 14.5262 26.2762 14.2761C26.5263 14.0261 26.6667 13.6869 26.6667 13.3333V6.66665ZM13.3334 6.66665C13.3334 6.31302 13.1929 5.97389 12.9429 5.72384C12.6928 5.47379 12.3537 5.33331 12.0001 5.33331H6.66675C6.31313 5.33331 5.97399 5.47379 5.72394 5.72384C5.47389 5.97389 5.33341 6.31302 5.33341 6.66665V9.33331C5.33341 9.68694 5.47389 10.0261 5.72394 10.2761C5.97399 10.5262 6.31313 10.6666 6.66675 10.6666H12.0001C12.3537 10.6666 12.6928 10.5262 12.9429 10.2761C13.1929 10.0261 13.3334 9.68694 13.3334 9.33331V6.66665ZM26.6667 21.3333C26.6667 20.9797 26.5263 20.6406 26.2762 20.3905C26.0262 20.1405 25.687 20 25.3334 20H20.0001C19.6465 20 19.3073 20.1405 19.0573 20.3905C18.8072 20.6406 18.6667 20.9797 18.6667 21.3333V25.3333C18.6667 25.6869 18.8072 26.0261 19.0573 26.2761C19.3073 26.5262 19.6465 26.6666 20.0001 26.6666H25.3334C25.687 26.6666 26.0262 26.5262 26.2762 26.2761C26.5263 26.0261 26.6667 25.6869 26.6667 25.3333V21.3333ZM13.3334 17.3333C13.3334 16.9797 13.1929 16.6406 12.9429 16.3905C12.6928 16.1405 12.3537 16 12.0001 16H6.66675C6.31313 16 5.97399 16.1405 5.72394 16.3905C5.47389 16.6406 5.33341 16.9797 5.33341 17.3333V25.3333C5.33341 25.6869 5.47389 26.0261 5.72394 26.2761C5.97399 26.5262 6.31313 26.6666 6.66675 26.6666H12.0001C12.3537 26.6666 12.6928 26.5262 12.9429 26.2761C13.1929 26.0261 13.3334 25.6869 13.3334 25.3333V17.3333Z" stroke="white" stroke-width="1.33333"/>
</g>
</svg>
