<svg width="32" height="32" viewBox="0 0 32 32" fill="none" xmlns="http://www.w3.org/2000/svg">
<g id="ri:admin-fill">
<path id="Vector" d="M16.0001 18.6667V29.3334H26.6667C26.6667 26.5044 25.5429 23.7913 23.5426 21.7909C21.5422 19.7905 18.8291 18.6667 16.0001 18.6667ZM16.0001 17.3334C20.4201 17.3334 24.0001 13.7534 24.0001 9.33337C24.0001 4.91337 20.4201 1.33337 16.0001 1.33337C11.5801 1.33337 8.00008 4.91337 8.00008 9.33337C8.00008 13.7534 11.5801 17.3334 16.0001 17.3334ZM4.00008 22.6667H2.66675V29.3334H13.3334V22.6667H12.0001V21.3334C12.0001 20.2725 11.5787 19.2551 10.8285 18.5049C10.0784 17.7548 9.06095 17.3334 8.00008 17.3334C6.93921 17.3334 5.9218 17.7548 5.17165 18.5049C4.42151 19.2551 4.00008 20.2725 4.00008 21.3334V22.6667ZM6.66675 22.6667V21.3334C6.66675 20.9798 6.80722 20.6406 7.05727 20.3906C7.30732 20.1405 7.64646 20 8.00008 20C8.3537 20 8.69284 20.1405 8.94289 20.3906C9.19294 20.6406 9.33341 20.9798 9.33341 21.3334V22.6667H6.66675Z" fill="white"/>
</g>
</svg>
